<?xml version="1.0" encoding="UTF-8"?><svg id="Layer_1" xmlns="http://www.w3.org/2000/svg" xmlns:xlink="http://www.w3.org/1999/xlink" viewBox="0 0 168 55"><defs><style>.cls-1,.cls-2{fill:none;}.cls-2{stroke:#ce2619;stroke-linecap:round;stroke-linejoin:round;}.cls-3{fill:url(#linear-gradient-4);opacity:.18;}.cls-3,.cls-4,.cls-5{isolation:isolate;}.cls-6{fill:url(#linear-gradient);}.cls-7{clip-path:url(#clippath);}.cls-8{fill:#f9c3c2;}.cls-9{fill:#f9d0d8;}.cls-10{fill:#006009;}.cls-11{fill:#006b0d;}.cls-12,.cls-13{fill:#ed9a94;}.cls-14{fill:#f1b0aa;}.cls-15{fill:#ffdf99;}.cls-16{fill:#f67636;}.cls-17{fill:#fd3d15;}.cls-18{fill:#fdbbcb;}.cls-19{fill:#e48b86;}.cls-20,.cls-4{fill:#fff;}.cls-21{fill:#ffd99c;}.cls-22{fill:#ffaf22;}.cls-23{fill:#ffb52b;}.cls-24{fill:#fd6874;}.cls-25{fill:#fd7868;}.cls-26{fill:#fcebf1;}.cls-27{fill:#ff982b;}.cls-28{fill:#feba00;}.cls-29{fill:#c45847;}.cls-30{fill:#b3db9e;}.cls-31{fill:#ce2619;}.cls-32{fill:#d35118;}.cls-33{fill:#abd255;}.cls-34{fill:#db581d;}.cls-35{fill:#0b891e;}.cls-36{fill:#199b2b;}.cls-37{fill:#6d911d;}.cls-38{fill:#81a939;}.cls-39{fill:#6bbe46;}.cls-40{fill:#32ad47;}.cls-41{fill:#844032;}.cls-42{fill:#601c11;}.cls-13{stroke:#ed9a94;stroke-miterlimit:10;stroke-width:.5px;}.cls-4{opacity:.5;}.cls-5{fill:url(#linear-gradient-3);opacity:.12;}.cls-43{fill:url(#linear-gradient-2);}.cls-44{opacity:.69;}.cls-45{opacity:.51;}</style><clipPath id="clippath"><rect class="cls-1" width="168" height="55"/></clipPath><linearGradient id="linear-gradient" x1="9.84" y1="23.56" x2="32.62" y2="23.56" gradientTransform="translate(0 56) scale(1 -1)" gradientUnits="userSpaceOnUse"><stop offset="0" stop-color="#54d8ec"/><stop offset="1" stop-color="#2c93fd"/></linearGradient><linearGradient id="linear-gradient-2" x1="10.24" y1="23.58" x2="33.87" y2="23.58" gradientTransform="translate(0 56) scale(1 -1)" gradientUnits="userSpaceOnUse"><stop offset="0" stop-color="#54d8ec"/><stop offset="1" stop-color="#2c93fd"/></linearGradient><linearGradient id="linear-gradient-3" x1="143.35" y1=".71" x2="144.7" y2="3.59" gradientTransform="translate(0 56) scale(1 -1)" gradientUnits="userSpaceOnUse"><stop offset="0" stop-color="#fff"/><stop offset=".99" stop-color="#fff" stop-opacity="0"/></linearGradient><linearGradient id="linear-gradient-4" x1="150.97" y1="4.51" x2="146.29" y2="3.92" gradientTransform="translate(0 56) scale(1 -1)" gradientUnits="userSpaceOnUse"><stop offset="0" stop-color="#fff"/><stop offset=".99" stop-color="#fff" stop-opacity="0"/></linearGradient></defs><g class="cls-7"><g><path class="cls-20" d="M34.32,26.14c-.06-.18-.15-.35-.24-.51-.28-.43-.7-.74-1.17-.95-.7-.29-1.52-.33-2.27,0-.27,.11-.51,.27-.74,.48l-.51,.48-.56,.51-1,.91-.39,.35-.22,.21,.94,.87,.66,.6,.9,.83,.21,.18c.16,.13,.29,.29,.41,.45,.18,.24,.33,.5,.44,.78,.01,.05,.04,.09,.05,.13,.02-.05,.05-.09,.07-.13,.02-.05,.06-.1,.1-.15,.11-.16,.23-.29,.38-.43l.23-.21,.7-.63,.9-.83,.48-.43s.11-.11,.16-.16c.23-.26,.4-.55,.51-.87,.06-.18,.09-.37,.1-.55v-.17c0-.26-.05-.51-.12-.73v-.04Z"/><path class="cls-20" d="M34.21,36.97c-.11-.22-.26-.43-.44-.61-.04-.04-.07-.07-.11-.11l-.77-.71-.72-.66-.82-.74s0-.01-.01-.02c-.15-.13-.27-.28-.37-.43-.06-.09-.11-.17-.16-.27-.09,.24-.21,.48-.35,.7-.15,.23-.33,.44-.54,.63l-.15,.13-.72,.66-.89,.8-.67,.61-.29,.27,.23,.21,.41,.38,.62,.57,.98,.89,.44,.4s.1,.09,.15,.12c1.06,.84,2.52,.72,3.48,0,.2-.15,.37-.33,.51-.52,.18-.26,.32-.56,.38-.89,.02-.13,.04-.28,.04-.43v-.15c-.02-.29-.1-.59-.23-.85h0Z"/><path class="cls-6" d="M9.6,35.63l1.43-1.29c1.15-1.04,1.15-2.74,0-3.78l-1.43-1.29c-.41-.38-.65-.89-.65-1.43v-.04c0-1.8,2.39-2.71,3.79-1.43l4.59,4.18c1.15,1.04,1.15,2.74,0,3.78l-4.59,4.18c-1.4,1.28-3.79,.38-3.79-1.43,0-.54,.23-1.05,.65-1.43v-.04Z"/><path class="cls-43" d="M15.59,37.47l3.17-2.89c1.29-1.17,1.29-3.1,0-4.27l-3.17-2.89c-.66-.6-1.02-1.41-1.02-2.26v-.05c0-2.84,3.78-4.27,5.99-2.26l8.16,7.43c1.29,1.17,1.29,3.1,0,4.27l-8.16,7.43c-2.21,2.01-5.99,.59-5.99-2.26,0-.84,.37-1.66,1.02-2.26h0Z"/><path class="cls-20" d="M25.75,21.89c1.93,0,3.5-1.57,3.5-3.5s-1.57-3.5-3.5-3.5-3.5,1.57-3.5,3.5,1.57,3.5,3.5,3.5Z"/><path class="cls-20" d="M43.37,36.42l-2.66-6.96h-2.56l4.24,10.09h1.77l4.45-10.09h-2.5l-2.74,6.96Z"/><path class="cls-20" d="M50.99,24.57c-.46,0-.83,.12-1.09,.38-.27,.26-.4,.59-.4,1,0,.44,.13,.77,.39,1,.26,.23,.63,.35,1.1,.35s.84-.12,1.11-.38c.27-.26,.4-.59,.4-.98,0-.45-.13-.79-.39-1.02-.26-.23-.63-.35-1.12-.35h0Z"/><path class="cls-20" d="M52.2,29.46h-2.35v10.09h2.35v-10.09Z"/><path class="cls-20" d="M62.28,30.65c-.43-.44-.91-.79-1.49-1.05-.57-.26-1.2-.38-1.85-.38-.76,0-1.45,.13-2.07,.39-.63,.26-1.17,.63-1.62,1.11-.45,.48-.8,1.05-1.06,1.7-.26,.65-.38,1.38-.38,2.16,0,1,.23,1.88,.68,2.65,.45,.77,1.09,1.38,1.89,1.83,.8,.45,1.74,.67,2.8,.67,.48,0,.95-.06,1.44-.2,.49-.12,.95-.3,1.39-.52,.44-.22,.83-.5,1.18-.82l-1.17-1.62c-.46,.39-.89,.67-1.28,.83-.39,.16-.83,.23-1.3,.23-.67,0-1.27-.13-1.77-.39s-.89-.63-1.17-1.12c-.18-.33-.3-.7-.37-1.09h7.44l.02-.83c.01-.72-.1-1.38-.32-1.98-.22-.61-.55-1.13-.96-1.57h-.04Zm-4.93,1.02c.43-.24,.95-.37,1.59-.37,.4,0,.78,.09,1.12,.26,.34,.17,.61,.41,.83,.71,.22,.3,.34,.65,.38,1.05v.1h-5.11c.05-.26,.13-.49,.23-.7,.22-.45,.54-.8,.96-1.05h0Z"/><path class="cls-20" d="M59.15,40.85c-.48,0-.84,.12-1.11,.38-.27,.26-.4,.59-.4,1,0,.45,.13,.79,.39,1.02,.26,.23,.63,.35,1.12,.35s.84-.12,1.11-.38,.4-.59,.4-1c0-.44-.13-.77-.39-1.01s-.63-.37-1.12-.37h0Z"/><path class="cls-20" d="M58.92,26.64l2.39,1.32,.87-.74-2.39-2.28h-1.73l-2.39,2.28,.87,.74,2.39-1.32Z"/><path class="cls-20" d="M67.93,31.74c.44-.27,.94-.41,1.5-.41,.33,0,.66,.06,1,.2,.33,.12,.65,.3,.94,.51,.29,.22,.54,.46,.73,.73l1.3-1.57c-.41-.61-.99-1.09-1.72-1.44-.74-.34-1.56-.51-2.48-.51s-1.79,.23-2.55,.7c-.76,.46-1.34,1.09-1.78,1.88-.44,.79-.65,1.68-.65,2.68s.22,1.89,.65,2.68c.44,.79,1.02,1.41,1.78,1.88,.76,.46,1.6,.7,2.55,.7,.84,0,1.65-.17,2.4-.52,.76-.35,1.35-.8,1.79-1.37l-1.3-1.59c-.24,.3-.5,.56-.78,.77-.28,.21-.57,.37-.89,.46-.32,.11-.63,.16-.96,.16-.55,0-1.05-.15-1.49-.43-.45-.28-.8-.66-1.06-1.13-.26-.48-.39-1.01-.39-1.61s.12-1.13,.38-1.62c.26-.48,.6-.85,1.05-1.13h-.02Z"/><path class="cls-20" d="M76.82,25.37h-2.38v14.17h2.38v-14.17Z"/><path class="cls-20" d="M85.19,26.93l-2.99-2.51-1.3,1.72,3.55,1.91,.74-1.12Z"/><path class="cls-20" d="M85.82,30.87c-.2-.29-.43-.56-.71-.79-.32-.27-.7-.48-1.11-.62-.43-.15-.89-.22-1.4-.22-.88,0-1.67,.22-2.38,.67-.71,.45-1.26,1.06-1.67,1.85-.41,.79-.61,1.7-.61,2.7s.21,1.9,.61,2.7c.4,.79,.95,1.41,1.62,1.88,.67,.46,1.43,.7,2.26,.7,.49,0,.94-.07,1.37-.23,.43-.16,.82-.35,1.17-.6,.32-.23,.59-.49,.82-.78v1.41h2.39v-10.09h-2.38v1.43h.02Zm-1.27,6.37c-.43,.27-.9,.4-1.45,.4s-1.04-.13-1.45-.4c-.41-.27-.73-.65-.96-1.12-.23-.48-.34-1.04-.34-1.66s.11-1.16,.34-1.62c.23-.48,.55-.84,.96-1.11,.41-.27,.9-.4,1.45-.4s1.04,.13,1.45,.4c.43,.27,.74,.63,.99,1.11,.23,.48,.35,1.01,.35,1.62s-.12,1.18-.35,1.66c-.23,.48-.56,.85-.99,1.12Z"/><path class="cls-20" d="M103.93,29.74c-.51-.3-1.15-.46-1.92-.46-.34,0-.69,.05-1.05,.16-.35,.1-.68,.26-1,.45-.32,.2-.61,.43-.87,.67-.22,.22-.4,.45-.54,.72-.13-.35-.29-.66-.49-.91-.29-.37-.65-.65-1.07-.82-.43-.17-.91-.26-1.46-.26-.37,0-.73,.06-1.09,.18-.35,.12-.7,.29-1.01,.5-.32,.21-.6,.46-.83,.74-.05,.06-.1,.13-.15,.2l-.02-1.45h-2.32v10.09h2.38v-6.05c0-.3,.06-.59,.17-.84,.11-.26,.27-.48,.48-.67,.21-.2,.45-.34,.73-.45,.28-.11,.59-.16,.9-.16,.38,0,.71,.09,.98,.26s.48,.43,.61,.74c.15,.33,.21,.73,.21,1.22v5.95h2.38v-6.04c0-.3,.06-.59,.17-.84,.11-.26,.27-.48,.48-.68,.21-.2,.45-.35,.73-.46,.29-.11,.59-.16,.92-.16,.4,0,.74,.09,1.02,.24,.27,.16,.48,.4,.61,.73,.13,.33,.19,.76,.19,1.27v5.94h2.38v-6.09c0-.91-.12-1.7-.38-2.32-.26-.62-.63-1.09-1.15-1.4Z"/><path class="cls-20" d="M112.78,34.81c.38-.43,.72-.83,1.03-1.21,.31-.38,.56-.74,.78-1.1,.22-.35,.39-.7,.53-1.01,.13-.32,.23-.63,.29-.94,.06-.3,.1-.59,.1-.87,0-.76-.17-1.41-.53-1.98-.35-.56-.83-1-1.43-1.32-.6-.32-1.28-.48-2.05-.48s-1.43,.15-2.06,.44c-.63,.29-1.18,.71-1.65,1.26-.46,.54-.82,1.18-1.05,1.93l1.88,1.11c.18-.5,.4-.93,.68-1.29,.27-.37,.57-.65,.9-.84,.33-.2,.66-.29,1-.29,.39,0,.73,.07,1,.21,.27,.15,.48,.34,.62,.6,.15,.26,.22,.56,.22,.9,0,.27-.07,.56-.21,.87-.15,.32-.32,.63-.55,.95-.22,.33-.45,.63-.69,.94-.24,.3-.48,.56-.71,.79l-4.02,4.5,.63,1.57h8.47v-2.29h-5.43l2.23-2.43v-.02Z"/><path class="cls-20" d="M124.4,26.1h-1.95l-6.66,8.12,1.04,1.99h5.18v3.33h2.39v-3.33h2.28v-2.16h-2.28v-7.95h0Zm-5.74,7.95l3.35-4.1v4.1h-3.35Z"/><path class="cls-20" d="M136.68,31.08c-.26-.61-.65-1.07-1.17-1.38-.51-.3-1.16-.46-1.93-.46-.54,0-1.06,.11-1.57,.34-.51,.23-.95,.54-1.32,.91-.11,.12-.22,.23-.31,.37v-5.49h-2.34v14.17h2.35v-6.09c0-.3,.06-.59,.18-.84,.12-.26,.29-.48,.5-.68,.21-.2,.46-.35,.74-.46,.29-.11,.6-.16,.95-.16,.43-.01,.78,.06,1.07,.22,.29,.16,.51,.41,.65,.74,.15,.34,.21,.77,.21,1.27v5.99h2.35v-6.17c0-.91-.13-1.68-.39-2.29h.01Z"/><path class="cls-28" d="M19.39,5.1c-.13,0-.23-.11-.23-.23V2.65c0-.13,.11-.23,.23-.23s.23,.11,.23,.23v2.22c0,.13-.11,.23-.23,.23Z"/><path class="cls-28" d="M19.39,9.8c-.13,0-.23-.11-.23-.23v-2.22c0-.13,.11-.23,.23-.23s.23,.11,.23,.23v2.22c0,.13-.11,.23-.23,.23Z"/><path class="cls-28" d="M20.24,5.44s-.11-.02-.16-.06c-.1-.09-.1-.23,0-.33l1.51-1.61c.09-.1,.23-.1,.33,0,.1,.09,.1,.23,0,.33l-1.51,1.61s-.11,.07-.17,.07h0Z"/><path class="cls-28" d="M17.02,8.87s-.11-.02-.16-.06c-.1-.09-.1-.23,0-.33l1.51-1.61c.09-.1,.23-.1,.33,0,.1,.09,.1,.23,0,.33l-1.51,1.61s-.11,.07-.17,.07h0Z"/><path class="cls-28" d="M20.63,6.31c-.12,0-.23-.1-.23-.22,0-.13,.1-.23,.22-.24l2.21-.07c.12,0,.23,.1,.24,.22,0,.13-.1,.23-.22,.24l-2.21,.07h-.01Z"/><path class="cls-28" d="M15.93,6.46c-.12,0-.23-.1-.23-.22,0-.13,.1-.23,.22-.24l2.21-.07c.13,0,.23,.1,.24,.22,0,.13-.1,.23-.22,.24l-2.21,.07h-.01Z"/><path class="cls-28" d="M21.92,8.7s-.11-.02-.16-.06l-1.62-1.5c-.1-.09-.1-.23-.01-.33,.09-.1,.23-.1,.33-.01l1.62,1.5c.1,.09,.1,.23,.01,.33-.05,.05-.11,.07-.17,.07Z"/><path class="cls-28" d="M18.47,5.5s-.11-.02-.16-.06l-1.62-1.5c-.1-.09-.1-.23-.01-.33s.23-.1,.33-.01l1.62,1.5c.1,.09,.1,.23,.01,.33-.05,.05-.11,.07-.17,.07h0Z"/><path class="cls-20" d="M19.32,5.91s-.05,0-.06-.04l-.15-.44s0-.05,.04-.06c.02,0,.05,0,.06,.04l.15,.44s0,.05-.04,.06Z"/><path class="cls-20" d="M19.63,6.86s-.05,0-.06-.04l-.15-.44s0-.05,.04-.06c.02,0,.05,0,.06,.04l.15,.44s0,.05-.04,.06Z"/><path class="cls-20" d="M19.51,5.92h-.04s-.04-.04-.02-.06l.2-.43s.04-.04,.06-.02c.02,0,.04,.04,.02,.06l-.2,.43s-.01,.02-.02,.02Z"/><path class="cls-20" d="M19.09,6.82h-.04s-.04-.04-.02-.06l.2-.43s.04-.04,.06-.02c.02,0,.04,.04,.02,.06l-.2,.43s-.01,.02-.02,.02Z"/><path class="cls-20" d="M19.64,6.08s-.05,0-.06-.02c0-.02,0-.05,.02-.06l.44-.16s.05,0,.06,.02c0,.02,0,.05-.02,.06l-.44,.16Z"/><path class="cls-20" d="M18.71,6.41s-.05,0-.06-.02c0-.02,0-.05,.02-.06l.44-.16s.05,0,.06,.02c0,.02,0,.05-.02,.06l-.44,.16Z"/><path class="cls-20" d="M20.07,6.47h-.04l-.43-.2s-.04-.04-.02-.06c0-.02,.04-.04,.06-.02l.43,.2s.04,.04,.02,.06c0,.01-.01,.02-.02,.02Z"/><path class="cls-20" d="M19.17,6.05h-.04l-.43-.2s-.04-.04-.02-.06c0-.02,.04-.04,.06-.02l.43,.2s.04,.04,.02,.06c0,.01-.01,.02-.02,.02Z"/><path class="cls-28" d="M6.99,10.97c-.23,0-.41-.18-.41-.41v-3.91c0-.23,.18-.41,.41-.41s.41,.18,.41,.41v3.91c0,.23-.18,.41-.41,.41Z"/><path class="cls-28" d="M6.99,19.27c-.23,0-.41-.18-.41-.41v-3.91c0-.23,.18-.41,.41-.41s.41,.18,.41,.41v3.91c0,.23-.18,.41-.41,.41Z"/><path class="cls-28" d="M8.49,11.55c-.1,0-.21-.04-.28-.11-.17-.16-.17-.41-.02-.59l2.67-2.85c.16-.17,.41-.17,.59-.02,.17,.16,.17,.41,.02,.59l-2.67,2.85c-.09,.09-.2,.13-.3,.13Z"/><path class="cls-28" d="M2.82,17.61c-.1,0-.21-.04-.28-.11-.17-.16-.17-.41-.02-.59l2.67-2.85c.16-.17,.41-.17,.59-.02,.17,.16,.17,.41,.02,.59l-2.67,2.85c-.09,.09-.2,.13-.3,.13Z"/><path class="cls-28" d="M9.19,13.09c-.22,0-.4-.17-.41-.4,0-.23,.17-.41,.4-.43l3.91-.13c.22-.01,.41,.17,.43,.4,0,.23-.17,.41-.4,.43l-3.91,.13h-.01Z"/><path class="cls-28" d="M.89,13.36c-.22,0-.4-.17-.41-.4,0-.23,.17-.41,.4-.43l3.91-.13c.23-.01,.41,.17,.43,.4,0,.23-.17,.41-.4,.43l-3.91,.13h-.01Z"/><path class="cls-28" d="M11.48,17.31c-.1,0-.2-.04-.28-.11l-2.88-2.66c-.17-.16-.17-.41-.02-.59,.16-.17,.41-.17,.59-.02l2.88,2.66c.17,.16,.17,.41,.02,.59-.09,.09-.2,.13-.3,.13Z"/><path class="cls-28" d="M5.39,11.66c-.1,0-.2-.04-.28-.11l-2.88-2.66c-.17-.16-.17-.41-.02-.59,.16-.17,.41-.17,.59-.02l2.88,2.66c.17,.16,.17,.41,.02,.59-.09,.09-.2,.13-.3,.13Z"/><path class="cls-20" d="M6.89,12.38s-.1,0-.11-.06l-.26-.79s0-.1,.06-.11c.05-.01,.1,0,.11,.06l.26,.79s0,.1-.06,.11Z"/><path class="cls-20" d="M7.42,14.05s-.1,0-.11-.06l-.26-.79s0-.1,.06-.11c.05-.01,.1,0,.11,.06l.26,.79s0,.1-.06,.11Z"/><path class="cls-20" d="M7.23,12.41h-.06s-.06-.07-.04-.11l.35-.74s.07-.06,.11-.04c.05,.02,.06,.07,.04,.11l-.35,.74s-.02,.04-.05,.05h0Z"/><path class="cls-20" d="M6.47,14h-.06s-.06-.07-.04-.11l.35-.74s.07-.06,.11-.04c.05,.02,.06,.07,.04,.11l-.35,.74s-.02,.04-.05,.05h0Z"/><path class="cls-20" d="M7.46,12.67s-.1,0-.11-.05c-.01-.05,0-.1,.05-.11l.78-.28s.1,0,.11,.05c.01,.05,0,.1-.05,.11l-.78,.28Z"/><path class="cls-20" d="M5.81,13.27s-.1,0-.11-.05c-.01-.05,0-.1,.05-.11l.78-.28s.1,0,.11,.05c.01,.05,0,.1-.05,.11l-.78,.28Z"/><path class="cls-20" d="M8.2,13.37h-.06l-.76-.34s-.06-.07-.04-.11c.02-.05,.07-.06,.11-.04l.76,.34s.06,.07,.04,.11c0,.02-.02,.04-.05,.05h0Z"/><path class="cls-20" d="M6.6,12.64h-.06l-.76-.34s-.06-.07-.04-.11c.02-.05,.07-.06,.11-.04l.76,.34s.06,.07,.04,.11c0,.02-.02,.04-.05,.05h0Z"/><path class="cls-19" d="M152.48,6.48c.12-.6,.91-2.15,1.51-2.02,.6,.12,.76,1.85,.63,2.45-.12,.6-.69,.98-1.28,.87-.6-.12-.98-.7-.87-1.28h0Z"/><path class="cls-19" d="M151.97,2.94c.6,.12,2.15,.91,2.02,1.51-.12,.6-1.85,.76-2.45,.63-.6-.12-.98-.7-.87-1.28,.12-.6,.7-.98,1.28-.87h.01Z"/><path class="cls-19" d="M155.51,2.42c-.12,.6-.92,2.15-1.51,2.02-.6-.12-.76-1.85-.63-2.45,.12-.6,.7-.98,1.28-.87,.6,.12,.98,.7,.87,1.28h0Z"/><path class="cls-19" d="M156.02,5.97c-.6-.12-2.15-.91-2.02-1.51,.12-.6,1.85-.76,2.45-.63,.6,.12,.98,.7,.87,1.28-.12,.6-.69,.98-1.28,.87h-.01Z"/><path class="cls-14" d="M153.02,5.76c.07-.38,.6-1.38,.98-1.3,.38,.07,.49,1.2,.41,1.57-.07,.38-.44,.63-.83,.56-.38-.07-.63-.44-.56-.83h0Z"/><path class="cls-14" d="M152.69,3.48c.38,.07,1.38,.6,1.3,.98-.07,.38-1.19,.49-1.57,.41-.38-.07-.63-.44-.56-.83,.07-.38,.44-.63,.83-.56Z"/><path class="cls-14" d="M154.97,3.15c-.07,.38-.6,1.38-.98,1.3-.38-.07-.49-1.2-.41-1.57,.07-.38,.44-.63,.83-.56,.38,.07,.64,.44,.56,.83Z"/><path class="cls-14" d="M155.3,5.43c-.38-.07-1.38-.6-1.31-.98,.07-.38,1.2-.49,1.57-.41,.38,.07,.63,.44,.56,.83-.07,.38-.44,.63-.83,.56Z"/><path class="cls-19" d="M153.93,4.91l.05-.27s.06,0,.08-.01l.15,.23s.02,.01,.04,0c.01,0,.01-.02,0-.04l-.15-.23s.04-.05,.05-.07l.27,.05s.04,0,.04-.02c0-.01,0-.04-.02-.04l-.27-.05s0-.06-.01-.09l.23-.15s.01-.02,0-.04c0-.01-.02-.01-.04,0l-.23,.15s-.05-.04-.07-.05l.05-.27s0-.04-.02-.04h-.02s0,0,0,.01l-.05,.27s-.06,0-.09,.01l-.15-.23s-.02-.01-.04,0c-.01,0-.01,.02,0,.04l.15,.23s-.04,.05-.05,.07l-.27-.05h-.02s0,.05,.02,.05l.27,.05s0,.06,.01,.09l-.23,.15s-.01,.02,0,.04c0,.01,.02,.01,.04,0l.23-.15s.05,.04,.07,.05l-.05,.27s0,.04,.02,.04c.01,0,.04,0,.04-.02l-.02,.02Z"/><path class="cls-17" d="M130.79,50.1c-.46-.09-1.67-.72-1.59-1.18,.09-.46,1.45-.59,1.92-.5,.46,.09,.77,.54,.67,1-.09,.46-.54,.77-1,.67h0Z"/><path class="cls-17" d="M128.03,50.5c.09-.46,.72-1.67,1.18-1.59,.46,.09,.59,1.45,.5,1.91-.09,.46-.54,.77-1,.67-.46-.09-.77-.54-.67-1h-.01Z"/><path class="cls-17" d="M127.63,47.74c.46,.09,1.67,.72,1.59,1.18-.09,.46-1.45,.59-1.91,.5-.46-.09-.77-.54-.67-1,.08-.46,.54-.77,1-.67h0Z"/><path class="cls-17" d="M130.4,47.33c-.09,.46-.72,1.67-1.18,1.59-.46-.09-.59-1.45-.5-1.91,.09-.46,.54-.77,1-.67,.46,.1,.77,.54,.67,1h.01Z"/><path class="cls-25" d="M130.23,49.67c-.29-.06-1.07-.46-1.02-.76,.06-.29,.94-.38,1.23-.32,.29,.06,.49,.35,.44,.65-.06,.29-.35,.49-.65,.44h0Z"/><path class="cls-25" d="M128.45,49.93c.06-.29,.46-1.07,.76-1.02,.29,.06,.38,.94,.32,1.23-.06,.29-.35,.49-.65,.44-.29-.05-.49-.35-.44-.65h.01Z"/><path class="cls-25" d="M128.19,48.15c.29,.06,1.07,.46,1.02,.76-.06,.29-.94,.38-1.23,.32-.29-.06-.49-.35-.44-.65,.05-.29,.35-.49,.65-.44h0Z"/><path class="cls-25" d="M129.97,47.89c-.06,.29-.46,1.07-.76,1.02-.29-.06-.38-.94-.32-1.23,.06-.29,.35-.49,.65-.44,.29,.06,.49,.35,.44,.65h-.01Z"/><path class="cls-17" d="M129.17,49.27l.04-.21s.05,0,.06-.01l.12,.18s.02,.01,.04,0c0,0,.01-.02,0-.04l-.12-.18s.02-.04,.04-.06l.21,.04s.02,0,.02-.01c0,0,0-.02-.01-.02l-.21-.04s0-.05-.01-.06l.18-.12s.01-.02,0-.04c0,0-.02-.01-.04,0l-.18,.12s-.04-.02-.06-.04l.04-.21s0-.02-.01-.02c0,0-.02,0-.02,.01l-.04,.21s-.05,0-.06,.01l-.12-.18s-.02-.01-.04,0c0,0-.01,.02,0,.04l.12,.18s-.02,.04-.04,.06l-.21-.04s-.02,0-.02,.01h0s0,.01,.01,.01l.21,.04s0,.05,.01,.06l-.18,.12s-.01,.02,0,.04c0,0,.02,.01,.04,0l.18-.12s.04,.02,.06,.04l-.04,.21h0s0,.01,.01,.01c0,0,.02,0,.02-.01v.02Z"/><path class="cls-24" d="M104.11,18.44c-.46-.09-1.67-.72-1.59-1.18,.09-.46,1.45-.59,1.92-.5,.46,.09,.77,.54,.67,1-.09,.46-.54,.77-1,.67h0Z"/><path class="cls-24" d="M101.34,18.83c.09-.46,.72-1.67,1.18-1.59,.46,.09,.59,1.45,.5,1.91-.08,.46-.54,.77-1,.67-.46-.09-.77-.54-.67-1h-.01Z"/><path class="cls-24" d="M100.93,16.08c.46,.09,1.67,.72,1.58,1.18-.08,.46-1.45,.59-1.91,.5-.46-.09-.77-.54-.67-1,.1-.46,.54-.77,1-.67h0Z"/><path class="cls-24" d="M103.7,15.67c-.09,.46-.72,1.67-1.18,1.59-.46-.09-.58-1.45-.5-1.91,.09-.46,.54-.77,1-.67,.46,.09,.77,.54,.67,1h.01Z"/><path class="cls-18" d="M103.53,18.02c-.29-.06-1.07-.46-1.02-.76,.06-.29,.94-.38,1.23-.32,.29,.06,.49,.35,.44,.65-.05,.29-.35,.49-.65,.44h0Z"/><path class="cls-18" d="M101.75,18.27c.06-.29,.46-1.07,.76-1.02,.29,.06,.38,.94,.32,1.23-.06,.29-.35,.49-.65,.44-.29-.06-.49-.35-.44-.65h.01Z"/><path class="cls-18" d="M101.5,16.49c.29,.06,1.07,.46,1.02,.76-.06,.29-.94,.38-1.23,.32-.29-.06-.49-.35-.44-.65,.06-.29,.35-.49,.65-.44h0Z"/><path class="cls-18" d="M103.28,16.24c-.06,.29-.46,1.07-.76,1.02-.29-.06-.38-.94-.32-1.23,.06-.29,.35-.49,.65-.44,.29,.06,.49,.35,.44,.65h-.01Z"/><path class="cls-24" d="M102.47,17.61l.04-.21s.05,0,.06-.01l.12,.18s.02,.01,.04,0c0,0,.01-.02,0-.04l-.12-.18s.02-.04,.04-.06l.21,.04s.03,0,.03-.01c0,0,0-.02-.01-.02l-.21-.04s0-.05-.01-.06l.18-.12s.01-.02,0-.04c0,0-.02-.01-.04,0l-.18,.12s-.04-.02-.06-.04l.04-.21s0-.02-.01-.02c0,0-.02,0-.02,.01l-.04,.21s-.05,0-.06,.01l-.12-.18s-.02-.01-.04,0c0,0-.01,.02,0,.04l.12,.18s-.02,.04-.04,.06l-.21-.04s-.03,0-.03,.01h0s0,.01,.01,.01l.21,.04s0,.05,.01,.06l-.18,.12s-.01,.02,0,.04c0,0,.02,.01,.04,0l.18-.12s.04,.02,.06,.04l-.04,.21h0s0,.01,.01,.01c0,0,.02,0,.02-.01v.02Z"/><path class="cls-12" d="M135.38,16.53c.13-.09,.28-.16,.44-.2,.1-.04,.21-.06,.32-.07,.26-.05,.51-.1,.78-.05,.26,.04,.51,.13,.65,.35,0-.01,0-.04-.01-.05-.12-.3-.24-.62-.32-.95-.09-.37-.11-.73-.02-1.1,.07-.29,.24-.57,.51-.7,.27-.12,.66,0,.73,.29,.22-.22,.6-.21,.85-.01,.24,.18,.35,.51,.35,.82,0,.28-.11,.54-.23,.78,0,0-.03,.05-.04,.07,.01-.02,.02-.05,.04-.07,.11-.18,.22-.35,.35-.5,.16-.17,.38-.29,.62-.3,.23,0,.48,.12,.56,.35,.04,.1,.04,.21,.12,.26,.09,.05,.2,0,.31,0,.21-.01,.39,.18,.37,.39-.02,.15-.13,.27-.24,.38-.05,.05-.08,.09-.13,.13-.07,.07-.15,.15-.22,.22-.26,.26-.5,.49-.78,.7-.05,.04-.08,.06-.13,.09,0,0-.03,.01-.04,.02-.01,.01-.02,.01-.04,.02-.04,.02-.07,.05-.12,.06,.28,.21,.48,.52,.59,.85,.11,.33,.13,.68,.15,1.04v.22c0,.09-.04,.17-.09,.24-.08,.13-.29,.2-.41,.09,.11,.09,.11,.26,.02,.35-.09,.11-.23,.15-.35,.12-.13-.02-.26-.09-.35-.16-.33-.23-.57-.57-.7-.95-.3,.59-.78,.98-1.32,1.34-.15,.11-.32,.2-.5,.21-.18,0-.39-.09-.44-.27-.33,.07-.66-.21-.73-.54-.07-.33,.06-.67,.26-.95,.2-.28,.39-.55,.6-.82-.18,.12-.38,.24-.6,.29-.22,.05-.46,.01-.63-.12-.17-.15-.23-.43-.1-.6-.27-.04-.45-.32-.44-.59,.01-.27,.18-.51,.4-.66l-.02-.05Z"/><path class="cls-12" d="M139.01,17.49s.1-.05,.15-.06l-.15,.06Z"/><path class="cls-12" d="M139.77,18.81s.05-.02,.07-.04l-.37,.16s.05-.02,.07-.02c.2-.05,.37-.13,.52-.27,.17-.11,.29-.26,.39-.43,.11-.17,.17-.37,.18-.56,.05-.21,.04-.4-.02-.61l-.16-.37c-.13-.23-.32-.41-.55-.55l-.37-.16c-.27-.07-.54-.07-.8,0h-.04c-.13,.04-.33,.13-.4,.17-.02,0-.05,.02-.07,.04-.18,.1-.32,.23-.43,.39-.13,.15-.23,.32-.27,.52-.06,.21-.07,.4-.03,.61,0,.21,.07,.39,.18,.56l.24,.3c.2,.18,.41,.32,.67,.39l.4,.05c.28,0,.54-.07,.77-.21h-.01Z"/><path class="cls-12" d="M137.76,17.83c.06-.02,.13-.06,.18-.11l-.18,.11Z"/><path class="cls-12" d="M138.53,19.15c.06-.02,.12-.06,.18-.11,.18-.1,.32-.23,.43-.39,.13-.15,.23-.32,.27-.52,.06-.21,.07-.4,.03-.61,0-.21-.07-.39-.18-.56l-.24-.3c-.2-.18-.42-.32-.67-.39l-.4-.05c-.28,0-.54,.07-.77,.21-.06,.05-.12,.09-.18,.11-.18,.1-.32,.23-.43,.39-.13,.15-.23,.32-.27,.52-.06,.21-.07,.4-.02,.61,0,.21,.07,.39,.18,.56l.24,.3c.19,.18,.41,.32,.67,.39l.4,.05c.28,0,.54-.07,.77-.21Z"/><path class="cls-12" d="M138.27,18.39s.03-.12,.03-.18l-.03,.18Z"/><path class="cls-12" d="M139.75,18.8s.02-.12,.02-.18c.06-.21,.07-.4,.03-.61,0-.21-.07-.39-.18-.56-.1-.18-.23-.32-.39-.43-.15-.13-.32-.23-.52-.27l-.4-.05c-.28,0-.54,.07-.77,.21l-.31,.24c-.18,.2-.32,.41-.39,.67,0,.06-.02,.12-.02,.18-.06,.21-.07,.4-.02,.61,0,.21,.07,.39,.18,.56,.1,.18,.23,.32,.39,.43,.15,.13,.32,.23,.52,.27l.4,.05c.28,0,.54-.07,.77-.21l.3-.24c.18-.2,.32-.41,.39-.67Z"/><path class="cls-12" d="M138.98,18.15s-.04-.06-.06-.09l.06,.09Z"/><path class="cls-12" d="M140.46,17.75c-.05-.13-.1-.26-.16-.39,0,0,0-.01-.01-.02-.07-.12-.17-.22-.26-.33,0,0-.01-.01-.02-.02-.13-.15-.31-.26-.49-.32-.18-.1-.38-.13-.58-.13s-.4,.04-.59,.13c-.18,.06-.35,.17-.49,.32l-.24,.3c-.13,.23-.21,.5-.21,.77l.05,.4c.07,.26,.21,.49,.39,.67,0,0,.01,.01,.02,.02l-.24-.3s.02,.04,.04,.06l-.16-.37c.05,.2,.13,.37,.27,.52,.11,.17,.26,.29,.43,.39,.17,.11,.37,.17,.56,.18,.21,.05,.4,.04,.61-.02l.37-.16c.23-.13,.41-.32,.55-.55l.16-.37c.07-.27,.07-.54,0-.8h.01Z"/><path class="cls-12" d="M138.13,17.17c-.05-.06-.08-.12-.13-.18l.13,.18Z"/><path class="cls-12" d="M139.45,16.41c-.05-.06-.09-.12-.13-.18-.1-.18-.23-.32-.39-.43-.15-.13-.32-.23-.52-.27-.21-.06-.4-.07-.61-.02-.21,0-.39,.07-.56,.18l-.3,.24c-.18,.2-.32,.41-.39,.67l-.05,.4c0,.28,.07,.54,.21,.77,.05,.06,.08,.12,.13,.18,.1,.18,.23,.32,.39,.43,.15,.13,.32,.23,.52,.27,.21,.06,.4,.07,.61,.02,.21,0,.39-.07,.56-.18l.31-.24c.18-.2,.32-.41,.39-.67l.05-.4c0-.28-.07-.54-.21-.77Z"/><path class="cls-26" d="M139.42,15.64c.11-.18,.22-.35,.35-.5,.16-.17,.38-.29,.62-.3,.23,0,.48,.12,.56,.35,.04,.1,.04,.21,.12,.26,.09,.05,.19,0,.3,0,.21-.01,.39,.18,.37,.39-.03,.15-.13,.27-.24,.38-.05,.05-.09,.09-.13,.13,.06-.11,.1-.23,.04-.33-.08-.12-.27-.12-.41-.11-.15,0-.34-.04-.38-.18-.03-.12,.07-.24,.05-.37-.02-.1-.12-.17-.23-.18-.1,0-.21,.02-.31,.07-.26,.11-.49,.26-.72,.4h.01Z"/><path class="cls-12" d="M130.49,10.63c.07-.12,.17-.23,.28-.33,.07-.06,.15-.12,.22-.18,.18-.13,.39-.27,.61-.33,.22-.06,.46-.07,.66,.05,0,0-.02-.02-.04-.04-.21-.21-.43-.43-.61-.66-.21-.27-.37-.56-.43-.89-.05-.27-.01-.56,.16-.76,.18-.2,.54-.23,.71-.04,.1-.26,.41-.39,.68-.33,.27,.06,.48,.28,.59,.54,.1,.23,.11,.48,.1,.72v0c.02-.18,.05-.37,.11-.55,.07-.2,.21-.38,.39-.48s.44-.07,.59,.07c.06,.06,.11,.16,.19,.16s.16-.07,.24-.11c.16-.09,.39,0,.44,.18,.04,.13,0,.27-.06,.4-.02,.05-.04,.1-.06,.15-.04,.09-.06,.17-.1,.26-.11,.29-.23,.59-.39,.85-.02,.04-.05,.09-.07,.12,0,0,0,.02-.02,.04,0,0-.01,.02-.02,.04-.02,.04-.05,.06-.07,.1,.3,.06,.57,.24,.79,.49,.21,.23,.37,.51,.5,.79,.02,.06,.06,.12,.07,.18,.02,.07,.04,.16,.02,.23-.02,.15-.17,.27-.3,.22,.11,.02,.18,.16,.16,.28-.02,.11-.13,.21-.24,.23-.11,.04-.23,.02-.35,0-.35-.07-.67-.26-.91-.51-.02,.59-.27,1.07-.57,1.57-.09,.15-.18,.28-.33,.35-.15,.07-.34,.07-.45-.06-.24,.18-.61,.07-.79-.17-.18-.24-.2-.57-.13-.87,.06-.29,.11-.59,.18-.88-.11,.17-.22,.34-.38,.45-.16,.12-.37,.18-.56,.13-.19-.06-.34-.26-.29-.45-.23,.06-.49-.1-.57-.32-.08-.22-.04-.49,.09-.68h0Z"/><path class="cls-12" d="M133.8,10.06s.06-.09,.1-.11l-.1,.11Z"/><path class="cls-12" d="M135.12,10.83s.01-.02,.02-.04l-.24,.3s.04-.05,.06-.06l-.3,.24c.18-.1,.32-.23,.43-.39,.13-.15,.23-.32,.27-.52,.06-.21,.07-.4,.02-.61,0-.21-.07-.39-.18-.56l-.24-.3c-.19-.18-.41-.32-.67-.39l-.4-.05c-.28,0-.54,.07-.77,.21-.11,.09-.23,.17-.34,.26,0,0-.02,.01-.02,.02-.1,.11-.18,.22-.26,.33,0,0-.01,.02-.03,.04-.11,.17-.17,.37-.18,.56-.05,.21-.04,.4,.03,.61,.05,.2,.13,.37,.27,.52,.11,.17,.26,.29,.43,.39l.37,.16c.27,.07,.54,.07,.8,0l.37-.16c.23-.13,.41-.32,.55-.55h.04Z"/><path class="cls-12" d="M132.91,10.81s.09-.1,.11-.16l-.11,.16Z"/><path class="cls-12" d="M133.98,11.88s.02-.02,.04-.04c.09-.11,.18-.23,.27-.34,.02-.02,.04-.05,.05-.09,.11-.17,.17-.37,.18-.56,.05-.21,.04-.4-.02-.61-.05-.2-.13-.37-.27-.52-.11-.17-.26-.29-.43-.39l-.37-.16c-.27-.07-.54-.07-.81,0l-.37,.16c-.23,.13-.41,.32-.55,.55-.02,.04-.05,.07-.07,.11l.24-.3s-.02,.04-.04,.05c-.15,.13-.26,.3-.32,.49-.1,.18-.13,.38-.13,.59s.04,.4,.13,.59c.06,.18,.17,.35,.32,.49l.3,.24c.23,.13,.5,.21,.77,.21l.4-.05c.26-.07,.49-.21,.67-.39h-.01Z"/><path class="cls-12" d="M133.53,11.06s-.02-.1-.04-.16l.04,.16Z"/><path class="cls-12" d="M135.01,10.66s-.02-.1-.04-.16c-.05-.2-.13-.37-.27-.52-.11-.17-.26-.29-.43-.39-.17-.11-.37-.17-.56-.18-.21-.05-.4-.04-.61,.02l-.37,.16c-.23,.13-.41,.32-.55,.55l-.16,.37c-.07,.27-.07,.54,0,.8,.01,.05,.02,.1,.04,.16,.05,.2,.13,.37,.27,.52,.11,.17,.26,.29,.43,.39,.17,.11,.37,.17,.56,.18,.21,.05,.4,.04,.61-.02l.37-.16c.23-.13,.41-.32,.55-.55l.16-.37c.07-.27,.07-.54,0-.8Z"/><path class="cls-12" d="M134.02,10.61s-.05-.04-.08-.05l.08,.05Z"/><path class="cls-12" d="M135.09,9.54s-.01,0-.02-.01c-.11-.09-.21-.18-.33-.26h-.02c-.12-.06-.26-.11-.39-.16-.21-.06-.4-.07-.61-.02-.21,0-.39,.07-.56,.18-.18,.1-.32,.23-.43,.39-.13,.15-.23,.32-.27,.52l-.05,.4c0,.28,.07,.54,.21,.77l.24,.3c.2,.18,.41,.32,.67,.39l-.37-.16s.04,.02,.05,.04l-.31-.24s.01,0,.03,.02c.13,.15,.3,.26,.49,.32,.18,.1,.38,.13,.59,.13s.4-.04,.58-.13c.18-.06,.35-.17,.49-.32l.24-.3c.13-.23,.21-.5,.21-.77l-.05-.4c-.07-.26-.21-.49-.39-.67v-.02Z"/><path class="cls-12" d="M132.96,10.14s-.12-.07-.18-.1l.18,.1Z"/><path class="cls-12" d="M133.74,8.82s-.12-.07-.18-.1c-.17-.11-.37-.17-.56-.18-.21-.05-.4-.04-.61,.02-.19,.05-.37,.13-.52,.27-.17,.11-.29,.26-.39,.43l-.16,.37c-.07,.27-.07,.54,0,.8l.16,.37c.13,.23,.32,.41,.55,.55,.06,.04,.12,.07,.18,.1,.17,.11,.37,.17,.56,.18,.21,.05,.4,.04,.61-.02,.19-.05,.37-.13,.52-.27,.17-.11,.29-.26,.39-.43l.16-.37c.07-.27,.07-.54,0-.8l-.16-.37c-.13-.23-.32-.41-.55-.55Z"/><path class="cls-41" d="M115.12,2.77c.05-1.32,0-2.61,0-2.61,0,0,.38,.07,.49,.61,.12,.54-.56,2.5,.66,3.57,1.21,1.07,2.96,2.66,3.98,2.72,.91,.05,2.15,.21,3.13-.22,.11-.05,.22-.1,.32-.16,1.04-.62,1.71-.44,2.62-.02,.91,.41,3.05,1.02,3.46,1.63,.27,.38,.94,1.06,1.81,1.55,.1,.05,.18,.11,.28,.15,.43,.21,.88,.37,1.35,.41,1.57,.17,2.8,.04,3.65,1.21,.6,.84,2.5,2.61,3.96,3.85,.58,.5,1.11,.91,1.46,1.15,.16,.11,.29,.18,.43,.26,.94,.49,1.45,.28,1.45,.28,0,0-.2-1.34,.21-.91,.4,.43,1,1.85,1.61,2.29,.61,.43,1.67,1.33,3.47,1.48,1.81,.15,3.37,.39,4.13,1.17,.77,.78,1.74,2.07,1.74,2.07,0,0,1.5,.94,2.01,1.85,.51,.91,1.8,3.82,1.8,3.82,0,0-.48,.52-.99,1.04-.59,.59-1.23,1.17-1.29,.95-.12-.41,.4-.37,.04-.9-.38-.54-1.06-.84-1.26-1.9-.21-1.06-.57-2.05-.57-2.05-.45-.54-1.52-.77-1.87-1.23-.33-.46-1.76-.88-1.76-.88,0,0-2.38,1.34-3.33,1.57-.21,.05-.41,.15-.65,.27-.81,.41-1.83,1.11-3.72,1.02-1.83-.09-3.55-.16-4.72-.32-.38-.05-.7-.11-.94-.2-1-.3-4.43-1.85-4.57-1.93,.09,0,1.48,.06,2.41,.5,.98,.45,2.99,.91,4.07,1.06,1.05,.15,3.09,.05,3.21,.04-.12-.04-2.66-.79-2.99-1.5-.18-.39-.24-.73-.27-.95,.07,.18,.27,.43,.77,.7,1.04,.54,1.91,.68,2.66,1.04s1.18,.46,1.18,.46c0,0,1.37-.94,2.37-1.51s4.09-1.59,3.63-1.93c-.45-.34-1.15-.24-2.18-.59-1.04-.34-2.56-.87-2.99-1.59-.41-.73-.45-1.51-1.55-1.79-1.09-.28-3.15-.67-4.72-2.23-1.57-1.56-2.27-2.17-2.96-2.66-.69-.49-2.29-2.01-2.29-2.01,0,0-1.16,.68-2.26-.1-1.1-.79-1.85-2.16-2.61-2.23-.76-.06-2.68-1.26-3.51-1.62-.83-.37-.83,.3-2.79,.35-1.96,.05-3.73-.09-5.15-1.02,0,0-1.73,1.91-2.88,1.15-1.15-.78-3.16-2.16-3.26-2.22,.08,.04,2.45,1.35,3.19,1.46,.77,.11,2.31-.96,2.31-.96l-7.49-4.48,6.56,3.24s-.93-.85-.89-2.17v-.04Z"/><path class="cls-42" d="M144.15,17.15s-.2-1.34,.21-.91c.4,.43,1,1.85,1.61,2.29,.61,.43,1.67,1.33,3.48,1.48,1.81,.15,3.37,.39,4.13,1.17s1.74,2.07,1.74,2.07c0,0,1.5,.94,2.01,1.85,.51,.91,1.81,3.82,1.81,3.82,0,0-.48,.52-.99,1.04-.29-.28-.39-.82-.51-1.46-.44-2.17-1.74-4.17-3.59-5.39-1.89-1.26-4.21-1.71-6.26-2.71-1.85-.9-3.45-2.24-5.09-3.51,.94,.49,1.45,.28,1.45,.28h-.01Z"/><path class="cls-42" d="M131.85,9.99c.43,.21,.88,.37,1.35,.41,1.57,.17,2.81,.04,3.65,1.21,.6,.84,2.5,2.61,3.96,3.85-2.85-2.04-5.87-3.83-8.96-5.48Z"/><path class="cls-42" d="M123.36,6.85c.11-.05,.22-.1,.32-.16,1.04-.62,1.71-.44,2.62-.02,.91,.41,3.05,1.02,3.46,1.63,.27,.38,.94,1.06,1.8,1.55-1.4-.74-2.83-1.45-4.26-2.13-1-.48-2.05-.96-3.16-.94-.26,0-.52,.04-.79,.07h0Z"/><path class="cls-9" d="M153.12,20.82c.22-.09,.3-.61,.56-1.04,.26-.43,.6-1.06-.09-1.06s-1.26,.78-1.27,.32c-.01-.46,.19-1.56-.38-1.83-.57-.27-1.32-.52-1.73-.34-.41,.18-.57-.27-.76-.04-.18,.23-.39,.65-.39,.65,0,0-.01-.07-.44-.05-.43,.02-.74,.1-.95,.33-.21,.23-.39,.15-.67,.41-.28,.27,.06,.7,.06,.7l.74,.74,2.87,1.2h2.44Z"/><path class="cls-12" d="M152.75,20.02c.08-.17,.06-.41-.1-.51-.18-.11-.43,0-.62-.09-.18-.09-.23-.32-.32-.49-.18-.34-.61-.54-.98-.44-.21,.05-.39,.18-.6,.18-.34,0-.65-.33-.98-.26-.13,.04-.24,.13-.38,.18-.33,.13-.78,.02-.99,.3-.13,.17-.1,.43,.02,.6,.12,.17,.33,.28,.52,.37,.28,.12,.57,.2,.87,.27,.72,.2,1.44,.38,2.16,.57,.21,.05,.41,.11,.62,.07,.22-.04,.33-.16,.45-.33,.1-.15,.24-.28,.33-.44h-.02Z"/><path class="cls-13" d="M147.57,30.2c-.06,.18-.13,.38-.27,.51-.13,.13-.38,.2-.54,.09-.15-.1-.17-.29-.2-.46-.02-.24-.06-.48-.08-.72-.03-.26-.06-.51-.03-.77,.04-.32,.16-.62,.39-.84,.22-.22,.54-.35,.85-.32,.22,.02,.48,.16,.6,.35,.1,.16,.01,.3-.05,.45-.24,.56-.48,1.12-.68,1.7h0Z"/><path class="cls-9" d="M149.26,27.35s.94,.62,.84,1.23c-.09,.61-.65,2.1-1.07,1.87-.43-.23-.82-2.48-.82-2.48l.39-.88,.66,.26h0Z"/><path class="cls-9" d="M146.95,26.7s-1.12-.07-1.43,.46c-.3,.54-.77,2.05-.29,2.13,.48,.09,2.16-1.46,2.16-1.46l.23-.94-.67-.2Z"/><path class="cls-41" d="M152.43,19.86c-.34-.13-.74-.12-1.06,.06,.01-.17,.02-.35-.02-.51-.05-.16-.2-.32-.37-.32-.21,0-.38,.16-.57,.2-.12,.02-.24,0-.36,0s-.27,.06-.29,.18c-.5-.27-1.09-.38-1.66-.33,.99,.61,2.05,1.07,3.16,1.38,.22,.06,.5,.11,.67-.09,.07-.07,.4-.62,.51-.57h0Z"/><path class="cls-41" d="M139.96,23.49c-.06-.17-.02-.28,0-.3v.3Z"/><path class="cls-41" d="M148.6,25.33c.1,.17-.45,1.13-.21,1.38s.9,.41,.88,.76c-.02,.34-.62-.16-.62-.16,0,0-.6,1.23-.98,1.33-.38,.1-.57-.67-.39-1.06l.18-.39s-.33,.24-.49,.02c-.16-.21,.15-.46,.3-.49,.16-.01,.5-.37,.71-.63,.21-.27,.21-.76,.21-.76,0,0,.26-.23,.39-.01h.01Z"/><path class="cls-9" d="M138.38,23.82c.15,.13,.31,.26,.48,.34,.07,.04,.13,.05,.21,.07,.27,.05,.57-.05,.7-.29,.44-.85-.89-1.61-1.5-1.85-.02,0-.05-.01-.07-.02-.05-.02-.11-.04-.16-.02-.09,0-.16,.05-.18,.13-.04,.13,.12,.29,.04,.4-.02,.04-.06,.05-.1,.07-.07,.06-.1,.17-.09,.27,.02,.1,.07,.18,.13,.27,.16,.23,.33,.44,.54,.63h.01Z"/><path class="cls-12" d="M138.86,24.16c.07,.04,.13,.05,.21,.07,.27,.05,.57-.05,.7-.29,.44-.85-.89-1.61-1.5-1.85-.02,0-.05-.01-.07-.02,0,.43,.39,.95,.67,1.24-.18,.22-.21,.56-.06,.79,.01,.02,.02,.04,.04,.06h.02Z"/><path class="cls-41" d="M140.21,23.8c-.07-.15-.1-.3-.18-.45-.13-.27-.4-.44-.65-.61-.1-.06-.22-.12-.32-.06-.08,.06-.08,.2-.05,.29,.07,.27,.23,.52,.45,.71-.13-.02-.23,.17-.18,.29,.05,.13,.18,.21,.32,.27,.22,.12,1.28,.77,1.45,.48,.13-.22-.23-.33-.35-.4-.21-.13-.39-.3-.49-.52h0Z"/><path class="cls-9" d="M125.09,10.17c.19,.02,.39,.04,.59,0,.07-.01,.15-.04,.21-.06,.24-.11,.44-.38,.4-.65-.13-.95-1.67-.79-2.29-.63-.03,0-.05,.01-.07,.02-.05,.01-.11,.04-.15,.07-.06,.05-.1,.13-.07,.21,.05,.13,.27,.17,.26,.3,0,.04-.02,.09-.04,.12-.02,.1,.02,.21,.1,.27,.07,.07,.17,.11,.26,.15,.26,.1,.53,.17,.81,.21h.01Z"/><path class="cls-12" d="M125.68,10.16c.07-.01,.15-.04,.21-.06,.24-.11,.44-.38,.4-.65-.13-.95-1.67-.79-2.29-.63-.03,0-.05,.01-.07,.02,.26,.34,.88,.55,1.27,.62-.02,.28,.15,.57,.42,.68,.02,0,.05,.01,.06,.02h.01Z"/><path class="cls-41" d="M126.57,9.09c-.15-.07-.27-.2-.4-.27-.27-.13-.59-.13-.89-.12-.11,0-.26,.02-.29,.13-.04,.1,.05,.21,.13,.27,.22,.17,.5,.29,.78,.32-.12,.06-.1,.27,.02,.35,.12,.07,.27,.06,.41,.04,.24-.04,1.49-.12,1.46-.45-.03-.26-.38-.13-.53-.12-.24,0-.49-.02-.71-.15Z"/><path class="cls-9" d="M121.63,12.46c.17-.04,.35-.09,.5-.17,.06-.04,.11-.07,.16-.12,.18-.17,.27-.45,.15-.67-.4-.78-1.66-.18-2.15,.13-.02,0-.04,.02-.05,.04-.04,.02-.07,.06-.1,.11-.04,.06-.05,.15,0,.21,.07,.1,.27,.06,.32,.18,.01,.04,0,.07,0,.11,0,.09,.07,.17,.16,.21,.09,.04,.17,.05,.27,.05,.24,0,.5-.01,.74-.06h0Z"/><path class="cls-12" d="M122.13,12.27s.11-.07,.16-.12c.18-.17,.27-.45,.15-.67-.4-.78-1.66-.18-2.15,.13-.02,0-.04,.02-.05,.04,.32,.22,.91,.21,1.27,.15,.06,.26,.3,.45,.56,.46h.06Z"/><path class="cls-41" d="M122.57,11.09c-.15-.02-.28-.09-.43-.11-.27-.04-.54,.06-.79,.16-.1,.04-.21,.1-.21,.2s.1,.16,.19,.2c.24,.09,.51,.1,.76,.04-.08,.09,0,.26,.12,.29,.12,.02,.26-.02,.37-.09,.19-.1,1.24-.55,1.11-.83-.1-.22-.35,0-.49,.05-.21,.09-.43,.12-.65,.09h.01Z"/><path class="cls-9" d="M117.5,4.59c.02,.17,.06,.35,.13,.51,.02,.06,.06,.12,.11,.17,.16,.2,.43,.3,.66,.21,.81-.34,.31-1.65,.02-2.16,0-.02-.02-.04-.04-.06-.02-.05-.06-.09-.1-.11-.06-.04-.15-.06-.21-.01-.1,.07-.08,.27-.21,.3h-.11c-.08,0-.17,.06-.22,.15-.05,.09-.06,.17-.06,.26-.03,.24-.03,.5,0,.74h.01Z"/><path class="cls-12" d="M117.63,5.1s.06,.12,.11,.17c.16,.2,.43,.3,.66,.21,.81-.34,.31-1.65,.02-2.16,0-.02-.02-.04-.04-.06-.24,.3-.28,.89-.26,1.26-.26,.04-.48,.27-.5,.52v.06h0Z"/><path class="cls-41" d="M118.78,5.63c.04-.15,.11-.27,.13-.41,.06-.27-.02-.54-.1-.8-.02-.1-.09-.22-.18-.22s-.17,.09-.21,.18c-.1,.23-.13,.5-.1,.76-.08-.1-.26-.02-.31,.1-.04,.12,0,.26,.06,.38,.09,.21,.45,1.28,.73,1.17,.22-.07,.02-.35,0-.49-.06-.21-.09-.44-.04-.66h0Z"/><path class="cls-9" d="M113.62,9.59c.17-.06,.34-.13,.48-.23,.05-.04,.1-.09,.15-.13,.16-.2,.21-.48,.06-.68-.5-.72-1.67,.02-2.11,.4-.01,.01-.04,.02-.05,.05-.04,.04-.07,.07-.08,.12-.03,.06-.03,.15,.02,.2,.09,.09,.28,.02,.33,.15,.01,.04,.01,.07,.03,.11,.02,.09,.1,.16,.18,.18,.09,.02,.18,.02,.27,0,.24-.02,.49-.07,.73-.16h0Z"/><path class="cls-12" d="M114.09,9.36s.1-.09,.15-.13c.16-.2,.21-.48,.06-.68-.5-.72-1.67,.02-2.11,.4-.01,.01-.04,.02-.05,.05,.35,.18,.93,.1,1.28,0,.1,.24,.35,.4,.61,.39h.06v-.02Z"/><path class="cls-41" d="M114.39,8.13c-.15,0-.29-.05-.44-.05-.27,0-.52,.13-.77,.26-.09,.05-.19,.12-.18,.22,0,.1,.12,.15,.22,.17,.26,.05,.53,.04,.76-.06-.07,.1,.04,.26,.16,.27,.12,.01,.24-.06,.35-.13,.18-.12,1.16-.7,1-.96-.12-.2-.35,.05-.48,.11-.2,.11-.42,.17-.63,.17h.01Z"/><path class="cls-9" d="M124.39,11.64c.13-.15,.28-.28,.45-.37,.06-.04,.13-.06,.21-.09,.27-.06,.57,.01,.72,.24,.49,.83-.81,1.66-1.39,1.93-.03,0-.05,.02-.07,.02-.05,.02-.11,.04-.16,.04-.08,0-.16-.05-.18-.12-.05-.13,.1-.29,.01-.4-.02-.04-.06-.05-.1-.07-.07-.06-.11-.17-.1-.27,.01-.1,.06-.2,.11-.28,.13-.23,.31-.46,.5-.66v.02Z"/><path class="cls-12" d="M124.85,11.27c.06-.04,.14-.06,.21-.09,.27-.06,.57,.01,.72,.24,.49,.83-.81,1.66-1.39,1.93-.02,0-.05,.02-.07,.02-.01-.43,.33-.98,.6-1.28-.19-.21-.24-.54-.11-.79,0-.02,.02-.04,.04-.06v.02Z"/><path class="cls-41" d="M126.21,11.56c-.06,.15-.08,.32-.15,.46-.12,.28-.38,.46-.62,.65-.08,.07-.21,.13-.31,.07-.1-.06-.08-.18-.06-.29,.06-.28,.21-.54,.42-.73-.13,.04-.24-.16-.19-.29,.05-.13,.17-.22,.29-.29,.21-.13,1.24-.84,1.43-.56,.15,.22-.21,.34-.33,.43-.19,.15-.37,.33-.46,.56h-.01Z"/><path class="cls-9" d="M127.08,8.96c.16-.05,.32-.07,.48-.07h.32c.26,.02,.52,.06,.76,.17,.23,.11,.45,.27,.52,.52v-.05c-.04-.33-.06-.67-.04-1,.02-.38,.1-.74,.28-1.06,.15-.26,.39-.49,.68-.52,.29-.04,.62,.18,.62,.49,.27-.15,.63-.02,.82,.22,.18,.24,.21,.59,.11,.88-.08,.27-.24,.48-.44,.68,0,0-.04,.04-.05,.06,.02-.02,.04-.04,.06-.06,.15-.15,.31-.28,.49-.39,.21-.11,.45-.18,.68-.12,.23,.06,.43,.26,.44,.49,0,.1-.01,.21,.05,.28,.07,.07,.2,.06,.29,.07,.2,.05,.33,.28,.24,.48-.06,.15-.21,.22-.34,.29-.05,.02-.11,.06-.16,.09-.09,.05-.18,.1-.27,.15-.32,.17-.62,.34-.95,.45-.05,.02-.1,.04-.16,.05h-.08s-.09,.02-.13,.02c.22,.28,.3,.63,.32,.99,0,.35-.06,.7-.15,1.04-.02,.07-.04,.15-.07,.21-.04,.09-.09,.16-.15,.21-.12,.1-.34,.11-.43-.04,.07,.11,.04,.27-.07,.35-.11,.07-.26,.07-.38,.02-.12-.05-.22-.15-.31-.26-.24-.32-.39-.71-.4-1.11-.45,.48-1.01,.72-1.63,.93-.17,.06-.37,.11-.54,.06-.18-.04-.34-.2-.34-.38-.34-.02-.57-.39-.55-.72,.02-.34,.26-.63,.51-.84,.27-.21,.52-.41,.79-.62-.22,.06-.44,.12-.66,.11-.22-.01-.45-.11-.57-.29-.12-.18-.1-.48,.07-.61-.24-.11-.34-.43-.26-.68,.08-.26,.32-.44,.57-.52v.05Z"/><path class="cls-8" d="M129.84,11.58c.2-.06,.33-.28,.33-.49,.24,.09,.51,.07,.76-.01,.06-.02,.12-.06,.16-.12,.04-.06,.04-.15-.02-.18-.06-.05-.13-.02-.21,0-.07,0-.17-.01-.17-.09,0-.05,.05-.09,.09-.12,.12-.12,.18-.32,.13-.48-.29,.04-.57,.15-.82,.32-.04-.15-.07-.28-.11-.43,0-.05-.02-.1-.06-.13-.07-.07-.19-.04-.26,.04-.06,.07-.07,.18-.09,.28-.11-.09-.26-.17-.38-.11-.09,.05-.12,.18-.09,.28,.04,.1,.11,.18,.17,.26-.16,.06-.26,.23-.24,.4,.02,.23,.23,.26,.34,.39,.11,.15,.24,.28,.45,.21h.01Z"/><path class="cls-12" d="M130.29,10.87s.11-.02,.16-.02l-.16,.02Z"/><path class="cls-12" d="M130.7,12.35s.05-.01,.07-.02l-.4,.05h.08c.21,0,.4-.04,.59-.13,.18-.06,.35-.17,.49-.32,.15-.13,.26-.3,.32-.49,.1-.18,.13-.38,.13-.59l-.05-.4c-.07-.26-.21-.49-.39-.67l-.31-.24c-.23-.13-.5-.21-.77-.21h-.09l-.4,.05h-.03s-.02,0-.05,.01c-.19,.05-.36,.13-.52,.27-.17,.11-.29,.26-.39,.43-.11,.17-.17,.37-.18,.56-.05,.21-.04,.4,.02,.61l.16,.37c.13,.23,.32,.41,.55,.55l.36,.16c.27,.07,.54,.07,.81,0v.02Z"/><path class="cls-12" d="M129.01,10.86c.07,0,.15-.02,.21-.05l-.21,.05Z"/><path class="cls-12" d="M129.41,12.33c.07,0,.15-.02,.21-.05,.19-.05,.37-.13,.52-.27,.17-.11,.29-.26,.39-.43,.11-.17,.17-.37,.18-.56,.05-.21,.04-.4-.02-.61l-.16-.37c-.13-.23-.32-.41-.55-.55l-.37-.16c-.27-.07-.54-.07-.81,0-.07,.02-.13,.05-.21,.05-.2,.05-.37,.13-.52,.27-.17,.11-.29,.26-.39,.43-.11,.17-.17,.37-.18,.56-.05,.21-.04,.4,.02,.61l.16,.37c.13,.23,.32,.41,.55,.55l.37,.16c.27,.07,.54,.07,.8,0Z"/><path class="cls-12" d="M129.35,11.54s.05-.11,.07-.16l-.07,.16Z"/><path class="cls-12" d="M130.65,12.31s.05-.11,.07-.16c.11-.17,.17-.37,.18-.56,.05-.21,.04-.4-.02-.61-.05-.2-.13-.37-.27-.52-.11-.17-.26-.29-.43-.39l-.37-.16c-.27-.07-.54-.07-.81,0l-.37,.16c-.23,.13-.41,.32-.55,.55-.02,.05-.05,.11-.07,.16-.11,.17-.17,.37-.18,.56-.05,.21-.04,.4,.03,.61,.05,.2,.13,.37,.27,.52,.11,.17,.26,.29,.43,.39l.37,.16c.27,.07,.54,.07,.8,0l.37-.16c.23-.13,.41-.32,.55-.55Z"/><path class="cls-12" d="M130.09,11.5s-.01-.07-.04-.1l.04,.1Z"/><path class="cls-12" d="M131.62,11.5c-.01-.15-.04-.29-.06-.43v-.05s-.1-.27-.17-.39c-.1-.18-.23-.32-.39-.43-.15-.13-.32-.23-.52-.27-.21-.06-.4-.07-.61-.02-.21,0-.39,.07-.56,.18l-.31,.24c-.18,.2-.32,.41-.39,.67l-.05,.4c0,.28,.07,.54,.21,.77v.02l-.16-.37s.01,.05,.02,.06l-.05-.4h0c0,.22,.04,.41,.13,.6,.06,.18,.17,.35,.32,.49,.13,.15,.3,.26,.49,.32,.18,.1,.38,.13,.59,.13l.4-.05c.26-.07,.49-.21,.67-.39l.24-.3c.13-.23,.21-.5,.21-.77v-.02Z"/><path class="cls-12" d="M129.54,10.33c-.03-.07-.05-.15-.07-.22l.07,.22Z"/><path class="cls-12" d="M131.01,9.92c-.02-.07-.05-.15-.07-.22-.05-.2-.13-.37-.27-.52-.11-.17-.26-.29-.43-.39-.17-.11-.37-.17-.56-.18-.21-.05-.4-.04-.61,.02l-.37,.16c-.23,.13-.41,.32-.55,.55l-.16,.37c-.07,.27-.07,.54,0,.8,.02,.07,.05,.15,.07,.22,.05,.2,.13,.37,.27,.52,.11,.17,.26,.29,.43,.39,.17,.11,.37,.17,.56,.18,.21,.05,.4,.04,.61-.02l.37-.16c.23-.13,.41-.32,.55-.55l.16-.37c.07-.27,.07-.54,0-.8Z"/><path class="cls-26" d="M127.08,8.96c.16-.05,.32-.07,.48-.07-.17,.07-.35,.16-.49,.29-.15,.13-.23,.33-.22,.52,.01,.2,.16,.39,.34,.43-.16,.09-.26,.28-.22,.46,.04,.18,.21,.32,.39,.32,.13,0,.26-.05,.39-.07,.12-.02,.28,.01,.34,.13,.05,.12-.04,.24-.12,.33-.15,.15-.34,.24-.51,.37-.17,.12-.34,.28-.4,.49s.02,.46,.22,.54c-.06,.13,.04,.29,.17,.37,.13,.06,.29,.05,.44,.02,.56-.09,1.11-.3,1.57-.65,.1-.06,.18-.13,.29-.17,.11-.04,.24-.02,.33,.06,.09,.09,.09,.21,.1,.33,.04,.32,.2,.63,.43,.85,.09-.09,.17-.17,.26-.26-.02,.04,.31,.13,.33,.13,.05,0,.15-.04,.22-.05-.04,.09-.08,.16-.15,.21-.12,.1-.34,.11-.43-.04,.07,.11,.04,.27-.07,.35-.11,.07-.26,.07-.38,.02-.12-.05-.22-.15-.3-.26-.24-.32-.39-.71-.4-1.11-.45,.48-1.01,.72-1.63,.93-.17,.06-.37,.11-.54,.06-.18-.04-.34-.2-.34-.38-.34-.02-.57-.39-.55-.72,.02-.34,.26-.63,.51-.84,.27-.21,.52-.41,.79-.62-.22,.06-.44,.12-.66,.11-.22-.01-.45-.11-.57-.29-.12-.18-.1-.48,.07-.61-.24-.11-.34-.43-.26-.68,.08-.26,.32-.44,.57-.52h0Z"/><path class="cls-26" d="M131.2,9.21c.15-.15,.31-.28,.49-.39,.21-.11,.45-.18,.68-.12,.23,.06,.43,.26,.44,.49,0,.1-.01,.21,.05,.28,.07,.07,.2,.06,.29,.07,.2,.05,.33,.28,.24,.48-.06,.15-.21,.22-.34,.29-.05,.02-.11,.06-.16,.09,.09-.09,.16-.2,.12-.3-.05-.15-.22-.18-.37-.22-.15-.04-.32-.12-.32-.28,0-.12,.15-.22,.16-.34,0-.11-.07-.2-.17-.23-.1-.04-.21-.02-.31-.01-.27,.04-.54,.11-.8,.18v.02Z"/><path class="cls-26" d="M130.09,6.94c.29-.04,.62,.18,.62,.49,.27-.15,.63-.02,.82,.22,.18,.24,.21,.59,.11,.88-.09,.27-.24,.48-.44,.68-.08,.02-.17,.05-.27,.09,.3-.32,.44-.79,.35-1.23-.02-.1-.05-.2-.12-.27-.06-.07-.17-.12-.27-.1-.07,.02-.15,.09-.22,.06-.11-.04-.1-.2-.12-.3-.05-.24-.37-.33-.6-.23-.22,.1-.37,.32-.47,.54-.13,.26-.24,.52-.35,.78,.02-.38,.1-.74,.28-1.06,.15-.26,.39-.49,.68-.52h0Z"/><path class="cls-9" d="M138.23,14.72c.01,.16,.06,.32,.13,.46,.05,.1,.1,.2,.15,.29,.12,.23,.27,.45,.46,.62,.2,.17,.44,.29,.7,.26-.01,0-.04,0-.05,.01-.32,.11-.63,.23-.93,.38-.33,.17-.63,.39-.85,.71-.17,.24-.28,.56-.18,.84,.09,.28,.43,.49,.7,.37-.01,.3,.24,.59,.54,.66,.31,.06,.62-.06,.85-.27,.21-.2,.33-.43,.44-.68,0,0,.02-.05,.02-.07,0,.02-.01,.05-.02,.09-.06,.2-.13,.39-.15,.6-.02,.23,.02,.49,.17,.67,.15,.18,.42,.28,.62,.2,.1-.04,.18-.11,.28-.07,.1,.04,.13,.15,.2,.23,.12,.16,.39,.17,.54,.02,.1-.11,.12-.28,.13-.43,0-.06,0-.12,.01-.18,0-.1,.01-.21,.02-.3,.02-.35,.05-.71,0-1.05,0-.05,0-.11-.02-.16v-.09s-.01-.09-.03-.13c.34,.09,.71,.02,1.03-.12,.32-.13,.61-.34,.88-.57,.06-.05,.11-.1,.16-.15,.06-.06,.11-.13,.13-.22,.04-.16-.05-.35-.21-.37,.13,.02,.27-.09,.28-.21,.03-.13-.04-.27-.13-.35-.1-.09-.23-.13-.35-.16-.39-.1-.8-.06-1.17,.1,.24-.61,.23-1.22,.16-1.88-.02-.18-.06-.37-.17-.51-.11-.15-.32-.23-.49-.16-.16-.3-.58-.37-.89-.2-.29,.16-.46,.49-.55,.82-.08,.33-.16,.65-.23,.98-.02-.22-.07-.45-.17-.65-.11-.2-.29-.37-.51-.4-.22-.04-.46,.11-.51,.32-.21-.17-.54-.13-.73,.05-.2,.18-.27,.48-.23,.74v-.02Z"/><path class="cls-8" d="M141.76,16.13c.02,.21-.12,.41-.32,.5,.18,.18,.28,.44,.29,.7,0,.07,0,.15-.04,.2-.04,.06-.12,.1-.18,.06s-.07-.12-.1-.18c-.02-.07-.09-.15-.15-.12-.05,.02-.06,.07-.07,.12-.06,.17-.21,.29-.38,.32-.09-.28-.1-.59-.05-.88-.15,.02-.28,.05-.43,.07-.05,0-.1,.01-.15,0-.1-.04-.11-.16-.07-.26,.04-.1,.13-.15,.22-.2-.12-.06-.27-.16-.26-.29,0-.11,.11-.18,.22-.2,.1-.01,.21,.02,.31,.05,0-.17,.11-.33,.27-.39,.22-.07,.33,.11,.5,.15,.18,.05,.35,.1,.38,.33v.02Z"/><path class="cls-12" d="M141.32,16.85s.02,.11,.05,.16l-.05-.16Z"/><path class="cls-12" d="M139.8,16.85c.01,.15,.04,.29,.06,.44v.04c.02,.07,.06,.16,.09,.22,.02,.06,.06,.15,.1,.22,.1,.18,.23,.32,.39,.43,.15,.13,.32,.23,.52,.27,.21,.06,.4,.07,.61,.02,.21,0,.39-.07,.56-.18l.31-.24c.18-.2,.32-.41,.39-.67l.05-.4c0-.28-.07-.54-.21-.77,0-.01-.01-.02-.02-.04l.16,.37s-.03-.07-.03-.11l.05,.4h0c0-.22-.04-.41-.13-.6-.06-.18-.17-.35-.32-.49-.13-.15-.31-.26-.49-.32-.18-.1-.38-.13-.58-.13l-.4,.05c-.26,.07-.49,.21-.67,.39l-.24,.3c-.13,.23-.21,.5-.21,.77l.03,.04Z"/><path class="cls-12" d="M140.76,15.67c.02,.07,.04,.13,.04,.21l-.04-.21Z"/><path class="cls-12" d="M139.3,16.08s.02,.1,.04,.15l-.05-.4v.06c0,.21,.04,.4,.13,.59,.06,.18,.17,.35,.32,.49,.13,.15,.31,.26,.49,.32,.18,.1,.38,.13,.59,.13l.4-.05c.26-.07,.49-.21,.67-.39l.24-.3c.13-.23,.21-.5,.21-.77v-.06c-.02-.15-.04-.3-.06-.45,0-.04-.01-.07-.02-.11-.05-.2-.13-.37-.27-.52-.11-.17-.26-.29-.43-.39-.17-.11-.37-.17-.56-.18-.21-.05-.4-.04-.61,.02l-.37,.16c-.23,.13-.41,.32-.55,.55l-.16,.37c-.07,.27-.07,.54,0,.8h-.01Z"/><path class="cls-12" d="M141.53,15.7s-.07,.1-.11,.13l.11-.13Z"/><path class="cls-12" d="M140.45,14.63s-.07,.1-.11,.13c-.15,.13-.26,.3-.32,.49-.1,.18-.13,.38-.13,.59s.04,.4,.13,.59c.06,.18,.17,.35,.32,.49l.31,.24c.23,.13,.5,.21,.77,.21l.4-.05c.26-.07,.49-.21,.67-.39,.04-.05,.07-.1,.11-.13,.15-.13,.26-.3,.32-.49,.1-.18,.14-.38,.14-.59s-.04-.4-.14-.59c-.06-.18-.17-.35-.32-.49l-.3-.24c-.23-.13-.5-.21-.77-.21l-.4,.05c-.26,.07-.49,.21-.67,.39Z"/><path class="cls-12" d="M141.8,16.39s-.07,.01-.11,.01h.11Z"/><path class="cls-12" d="M141.4,14.92s-.04,0-.05,.01l.4-.05h-.05c-.21,0-.4,.04-.58,.13-.18,.06-.35,.17-.49,.32-.15,.13-.26,.3-.32,.49-.1,.18-.13,.38-.13,.59l.05,.4c.07,.26,.21,.49,.39,.67l.3,.24c.23,.13,.5,.21,.77,.21h.02c.07,0,.17-.02,.23-.02s.16-.01,.23-.04h.02c.2-.05,.37-.13,.52-.27,.17-.11,.29-.26,.39-.43,.11-.17,.17-.37,.18-.56,.05-.21,.04-.4-.03-.61l-.16-.37c-.13-.23-.32-.41-.55-.55l-.37-.16c-.27-.07-.54-.07-.8,0h0Z"/><path class="cls-12" d="M140.51,16.38c-.07,0-.15,.01-.23,.02l.23-.02Z"/><path class="cls-12" d="M140.51,14.86c-.07,0-.15,.01-.23,.02-.21,0-.4,.04-.58,.13-.18,.06-.35,.17-.49,.32-.15,.13-.26,.3-.32,.49-.1,.18-.13,.38-.13,.59l.05,.4c.07,.26,.21,.49,.39,.67l.3,.24c.23,.13,.5,.21,.77,.21,.07,0,.15-.01,.23-.02,.21,0,.4-.04,.59-.13,.18-.06,.35-.17,.49-.32,.15-.13,.26-.3,.32-.49,.1-.18,.13-.38,.13-.59l-.05-.4c-.07-.26-.21-.49-.39-.67l-.31-.24c-.23-.13-.5-.21-.77-.21h0Z"/><path class="cls-26" d="M138.23,14.72c.01,.16,.06,.32,.13,.46,0-.2,0-.39,.06-.56,.06-.18,.2-.35,.38-.43,.18-.07,.41-.02,.52,.13,0-.18,.15-.35,.33-.39s.38,.06,.46,.22c.06,.12,.06,.26,.1,.38,.04,.12,.13,.26,.27,.24,.12,0,.21-.13,.26-.26,.07-.2,.09-.41,.12-.62,.04-.21,.11-.43,.27-.56,.16-.13,.43-.17,.59-.02,.1-.11,.28-.1,.4,0,.11,.1,.17,.24,.21,.38,.15,.55,.18,1.13,.07,1.7-.02,.11-.05,.23-.04,.34,.01,.11,.09,.23,.2,.27s.23-.01,.34-.05c.3-.1,.66-.09,.95,.04-.05,.11-.09,.23-.12,.34,.03-.04,.24,.22,.27,.24,.02,.05,.02,.15,.05,.22,.06-.06,.11-.13,.13-.22,.04-.16-.05-.35-.21-.37,.13,.02,.27-.09,.28-.21,.02-.13-.04-.27-.13-.35-.1-.09-.23-.13-.35-.16-.39-.1-.81-.06-1.17,.1,.24-.61,.23-1.22,.16-1.88-.03-.18-.06-.37-.17-.51-.11-.15-.32-.23-.49-.16-.16-.3-.58-.37-.89-.2-.29,.16-.46,.49-.55,.82-.09,.33-.16,.65-.23,.98-.02-.22-.07-.45-.17-.65-.11-.2-.29-.37-.51-.4-.22-.04-.46,.11-.51,.32-.21-.17-.54-.13-.73,.05-.19,.18-.27,.48-.23,.74l-.04,.02Z"/><path class="cls-26" d="M140.18,18.36c-.06,.2-.13,.39-.15,.6-.02,.23,.02,.49,.17,.67,.15,.18,.42,.28,.62,.2,.1-.04,.18-.11,.28-.07,.1,.04,.13,.15,.2,.23,.12,.16,.39,.17,.54,.02,.1-.11,.12-.28,.13-.43,0-.06,0-.12,.01-.18-.04,.12-.11,.22-.23,.23-.15,.02-.27-.12-.35-.24-.1-.12-.24-.24-.38-.17-.11,.06-.13,.22-.24,.28-.08,.05-.21,.01-.28-.06s-.11-.17-.15-.27c-.09-.27-.12-.54-.17-.8h0Z"/><path class="cls-26" d="M137.65,18.3c.09,.28,.43,.49,.7,.37-.01,.3,.24,.59,.54,.66,.31,.06,.62-.06,.85-.27,.21-.2,.33-.43,.44-.68-.01-.1-.02-.18-.04-.28-.17,.41-.54,.73-.98,.84-.1,.02-.21,.04-.29,0-.1-.02-.18-.11-.2-.21-.01-.09,.01-.17-.04-.23-.07-.09-.22,0-.33,.01-.24,.05-.46-.2-.46-.44s.13-.46,.28-.66c.17-.23,.37-.44,.56-.65-.33,.17-.63,.39-.85,.71-.17,.24-.28,.56-.18,.84h0Z"/><path class="cls-29" d="M139.03,26.47s.09-.04,.16-.05c.21-.02,.41-.02,.62-.04,.43-.01,.85,0,1.28,0,.87,.02,1.73,.07,2.59,.07,.49,0,.96-.04,1.45-.11,.79-.11,1.56-.33,2.33-.59-.8,.41-1.83,1.11-3.72,1.02-1.83-.09-3.55-.16-4.72-.32h.01Z"/><path class="cls-35" d="M161.41,25.33c-.02,.24-.17,.49-.41,.67-.15,.11-.29,.18-.44,.26-.04,.01-.07,.04-.1,.05-.16,.09-.39,.22-.47,.4-.04,.07-.04,.16,0,.23,0,.02,.04,.06,.06,.07,.1,.04,.16,.12,.18,.21,.01,.06,0,.12,0,.18-.05,.13-.18,.21-.32,.18-.02,0-.05,0-.07-.02-.18-.07-.33-.22-.4-.41-.09-.22-.09-.49,.01-.71,.16-.35,.5-.56,.76-.7,.04-.02,.07-.04,.11-.06,.12-.06,.24-.12,.33-.2,.1-.07,.17-.17,.18-.26,0-.09-.05-.21-.15-.3-.12-.11-.29-.2-.46-.27-.15-.07-.22-.24-.15-.4,.07-.15,.24-.22,.4-.15,.2,.1,.43,.2,.62,.37,.21,.18,.33,.43,.34,.67v.13l-.03,.05Z"/><path class="cls-11" d="M161.41,25.33c-.02,.24-.17,.49-.41,.67-.15,.11-.29,.18-.44,.26-.04,.01-.07,.04-.1,.05-.16,.09-.39,.22-.47,.4-.04,.07-.04,.16,0,.23,0,.02,.04,.06,.06,.07,.1,.04,.16,.12,.18,.21-.04,.07-.08,.12-.16,.16-.18,.09-.4-.1-.45-.3-.07-.29,.07-.6,.29-.8,.22-.21,.49-.33,.76-.46,.27-.13,.54-.29,.69-.55,.01-.02,.02-.05,.04-.06v.13h.01Z"/><path class="cls-35" d="M159.02,27.02s-.06-.48,.16-.45c.22,.02,1.32,.17,1.46,.18,.15,.02,.05,.39,.05,.39l-1.67-.12h0Z"/><path class="cls-39" d="M168.02,36.75c0,.1-.02,.21-.04,.3,0,.1-.03,.18-.04,.28v.04c0,.06-.02,.13-.04,.2,0,.04-.01,.07-.02,.11-.01,.1-.04,.18-.06,.28-.01,.07-.04,.15-.05,.22-.02,.11-.06,.22-.08,.33-.03,.07-.05,.15-.07,.22,0,.04-.03,.07-.04,.11-.05,.15-.1,.28-.16,.41-.02,.05-.04,.1-.06,.15-.01,.04-.02,.06-.04,.09-.01,.04-.04,.09-.05,.12-.04,.09-.08,.18-.12,.27-.02,.06-.06,.12-.09,.17-.1,.2-.21,.38-.32,.55-.04,.05-.06,.1-.1,.16-.06,.09-.11,.17-.17,.26-.03,.04-.05,.06-.06,.1-.04,.06-.09,.11-.12,.17-.05,.06-.1,.12-.15,.2,0,0-.01,.02-.02,.02-.08,.1-.17,.21-.26,.3-.11,.13-.23,.26-.35,.38-.1,.1-.19,.2-.29,.28-.05,.05-.1,.09-.15,.13-.07,.07-.15,.13-.23,.2,0,0-.05,.04-.07,.06-.06,.05-.13,.11-.21,.16-.05,.04-.11,.09-.16,.12-.55,.4-1.13,.73-1.76,1-.05,.02-.1,.04-.15,.06-.06,.02-.12,.05-.2,.07-.06,.02-.12,.05-.18,.06-.05,.01-.11,.04-.16,.05-.07,.02-.15,.05-.22,.07-.06,.01-.11,.04-.17,.05-.04,0-.07,.02-.11,.04-.05,.01-.11,.02-.16,.04s-.1,.02-.15,.04c-.06,.01-.12,.02-.2,.04-.06,.01-.12,.02-.18,.04-.04,0-.07,.01-.11,.02-.05,0-.1,.01-.15,.02-.05,0-.11,.01-.16,.02-.06,0-.13,.02-.21,.02-.06,0-.12,.01-.18,.02-.09,0-.17,.01-.24,.02h-1.32c-.07,0-.15,0-.21-.02h-.07s-.07,0-.11-.01c-.1,0-.18-.02-.28-.04-.07,0-.16-.02-.23-.04-.05,0-.1-.01-.15-.02-.04,0-.09-.01-.12-.02-.04,0-.06-.01-.1-.02-.06-.01-.13-.02-.2-.05h-.04c-.06-.01-.12-.04-.18-.05-.02,0-.05-.01-.07-.02-.06-.01-.13-.04-.2-.06-.01,0-.02,0-.04-.01-.05-.01-.09-.02-.13-.05-.05-.01-.1-.04-.15-.05-.01,0-.02,0-.04-.01-.06-.02-.12-.05-.2-.07-.07-.02-.15-.06-.22-.09-.44-.18-.87-.41-1.27-.66-.06-.04-.11-.07-.17-.11-.05-.02-.09-.06-.13-.09-.05-.04-.1-.06-.15-.1-.05-.04-.11-.07-.16-.12-.05-.04-.11-.09-.16-.12-.1-.09-.2-.16-.29-.24-.34-.29-.65-.6-.94-.94-.48-.55-.88-1.15-1.21-1.79l-.28-.73-.18-.49-.22-.57c-.28-1.07-.37-2.21-.22-3.38,.04-.3,.08-.61,.16-.9,.62-2.67,2.4-4.82,4.73-5.98,.24-.12,.5-.23,.77-.33,.57-.22,1.16-.38,1.77-.48,.08,0,.17-.02,.24-.04,.35-.05,.71-.07,1.07-.07h.59c.17,0,.35,.02,.52,.05,0,0,.07,0,.11,.01,.1,.01,.21,.02,.3,.05,.17,.02,.34,.06,.51,.1,.22,.05,.44,.11,.65,.17,.24,.07,.47,.16,.71,.24,.82,.33,1.57,.77,2.24,1.3,.04,.04,.09,.06,.12,.1,.22,.18,.44,.38,.63,.57,.04,.04,.09,.09,.12,.12,.05,.05,.1,.11,.16,.17,.04,.04,.07,.07,.1,.11,.02,.02,.04,.04,.06,.06,.04,.05,.09,.1,.12,.15,.05,.06,.1,.12,.15,.18,.04,.05,.09,.1,.12,.16,.04,.04,.06,.09,.09,.12,.19,.27,.37,.54,.52,.83,.02,.05,.06,.1,.09,.15,.05,.1,.1,.18,.15,.28,.04,.06,.06,.12,.09,.18,.04,.06,.06,.12,.09,.2,.02,.06,.05,.12,.07,.18,.04,.07,.06,.15,.08,.22,.04,.1,.07,.2,.11,.29,.02,.06,.04,.12,.06,.2,.02,.07,.05,.16,.07,.23,.05,.16,.09,.32,.12,.46v.04c.01,.07,.04,.15,.05,.21,.01,.09,.04,.16,.05,.24,.01,.09,.02,.17,.04,.24,.1,.67,.12,1.38,.05,2.09h.01Z"/><path class="cls-35" d="M157.96,27.09c-.17,.23-.39,.51-.68,.83-.4,.44-.37,.65-.37,.84,0,.17-.06,.33-.52,.63-.98,.63-1.07,1.15-1.07,1.15,0,0-.1,.83-.46,1.28-.12,.15-.27,.26-.46,.28-.72,.11-.91,.59-1.06,1.44,0,.04-.01,.07-.02,.11-.04,.26-.09,.44-.15,.59-.16,.37-.41,.45-.87,.82-.04,.02-.07,.06-.1,.09-.05,.05-.09,.1-.12,.15-.3,.48,0,1.07,.23,1.84,.26,.91-.31,.84-1.15,1.74-.11,.12-.18,.23-.24,.35l-.18-.49c.09-.61,.57-1.17,.48-2.27-.1-1.1-.34-1.09,.11-1.96,.01-.02,.02-.06,.05-.09,.43-.82,.83-1.27,.91-2.09,.05-.48,.29-.71,.61-.9,.26-.15,.56-.27,.87-.46,.32-.21,.38-.49,.39-.78,.01-.34-.04-.68,.19-.89,.42-.39,1.29-.04,1.26-.98,0-.37,.11-.59,.35-.76,.57-.22,1.16-.38,1.77-.48,.09-.01,.16-.02,.24-.04v.04Z"/><path class="cls-35" d="M160.26,27.09s-.01,.01-.02,.02c-.01,0-.02,.02-.04,.04-.08,.07-.15,.16-.19,.26-.04,.06-.06,.13-.09,.2-.09,.24-.11,.52-.12,.79-.03,.51-.05,1.01-.09,1.52-.02,.38-.05,.77-.28,1.07-.29,.38-.89,.55-.99,1.02-.09,.43,.29,.85,.18,1.27-.13,.49-.83,.6-1.08,1.04-.31,.5,.1,1.17-.07,1.73-.1,.32-.35,.56-.59,.79-.58,.6-1.08,1.29-1.45,2.05-.03,.06-.06,.12-.09,.18-.4,.89-.65,1.84-.88,2.78-.07,.29-.15,.59-.16,.88-.01,.13-.01,.27,0,.4,.01,.12,.04,.24,.07,.37-.06-.04-.11-.07-.17-.11-.05-.02-.09-.06-.13-.09-.05-.04-.1-.06-.15-.1-.05-.04-.11-.07-.16-.11-.05-.04-.11-.09-.16-.12-.06-.07-.12-.16-.17-.23-.29-.49-.4-1.1,.04-1.57,.22-.23,.56-.4,.67-.71,.23-.63-.62-1.27-.41-1.9,.13-.39,.6-.55,.93-.8,.13-.11,.24-.23,.3-.39,.16-.49-.29-1.05-.06-1.5,.26-.49,1.09-.41,1.31-.91,.16-.33-.06-.73,.02-1.09,.17-.73,1.39-.78,1.57-1.51,.13-.54-.39-1.16-.05-1.6,.16-.2,.43-.24,.66-.33,.23-.09,.49-.27,.48-.51-.02-.23-.26-.37-.4-.55-.39-.46-.04-1.33,.57-1.38-.19-.28-.16-.71,.09-.95h.01s.04-.05,.06-.06c.04-.02,.07-.05,.11-.07,.07-.04,.16-.06,.24-.07,.12-.01,.24,0,.35,.05,.11,.04,.22,.11,.29,.21h.04Z"/><path class="cls-35" d="M166.3,40.15c-.12,.13-.28,.27-.27,.45,0,.18,.18,.3,.24,.48,.03,.07,.03,.15,0,.21l-1.44,1.51c.11-.28,.22-.56,.13-.84-.05-.16-.16-.28-.21-.44-.07-.24,.02-.51,.12-.76,.21-.51,.42-1.04,.63-1.55,.1-.24,.21-.52,.12-.78-.11-.37-.56-.62-.48-.99,.07-.35,.6-.46,.66-.83,.05-.33-.35-.57-.42-.9-.06-.35,.27-.68,.22-1.04-.06-.4-.57-.59-.68-.98-.07-.23,.02-.49,.02-.73,0-.37-.17-.71-.34-1.02-.26-.46-.5-.91-.76-1.38-.16-.28-.32-.57-.48-.85-.16-.29-.33-.59-.54-.85-.23-.27-.8-.88-.41-1.23,.82,.33,1.57,.77,2.24,1.3-.1,.16-.23,.27-.42,.29,.43,.7,.84,1.39,1.27,2.09,.26,.41,.52,.9,.4,1.38,.84,.68,1.27,1.83,1.11,2.89-.04,.23-.1,.48-.17,.71-.22,.8-.45,1.61-.67,2.41,.39,.35,.44,1.04,.1,1.44h-.01Z"/><path class="cls-35" d="M162.98,33.89c-.16,.45-.54,.78-.9,1.1,.46,.3,.33,1,.15,1.51-.34,.94-.67,1.88-1.01,2.82-.23,.65-.46,1.28-.7,1.93-.13,.37-.26,.73-.39,1.1-.3,.87-.62,1.74-1.1,2.52-.29,0-.6-.02-.9-.06,.16-.4,.2-.84,.09-1.26-.07-.3-.22-.63-.06-.9,.12-.21,.4-.3,.48-.52,.09-.23-.08-.49-.1-.73-.02-.38,.27-.7,.52-.98,1.35-1.57,1.61-3.78,1.8-5.85,.07-.76,.15-1.52,.22-2.28,.04-.45,.09-.91-.05-1.34-.1-.32-.29-.62-.24-.94,.04-.27,.23-.5,.27-.78,.05-.38-.2-.72-.3-1.07-.16-.46,.06-.79,.34-.9,.23-.1,.5-.05,.65,.17,.12,.18,.16,.48,.02,.91-.07,.26-.13,.54-.01,.77,.16,.32,.62,.45,.67,.8,.05,.33-.28,.59-.32,.91-.05,.35,.26,.65,.45,.95,.21,.29,.28,.79-.05,.94,.46,.13,.63,.74,.48,1.2h0Z"/><g class="cls-45"><path class="cls-40" d="M168.02,36.75c0,.1-.02,.21-.04,.3-.01,.1-.03,.18-.04,.28v.04c0,.06-.02,.13-.04,.2,0,.04-.01,.07-.02,.11-.01,.1-.04,.18-.06,.28-.01,.07-.04,.15-.05,.22-.02,.11-.06,.22-.08,.33-.03,.07-.05,.15-.07,.22-.01,.04-.03,.07-.04,.11-.05,.15-.1,.28-.16,.41-.02,.05-.04,.1-.06,.15-.01,.02-.02,.06-.04,.09-.01,.04-.04,.09-.05,.12-.04,.09-.08,.18-.12,.27-.02,.06-.06,.12-.09,.17-.1,.18-.21,.38-.32,.55-.04,.05-.06,.1-.1,.16-.06,.09-.11,.17-.17,.26-.03,.04-.05,.06-.06,.1-.04,.06-.09,.11-.12,.17-.05,.06-.1,.12-.15,.2,0,0-.01,.02-.02,.02-.08,.1-.17,.21-.26,.3-.21,.23-.42,.45-.65,.66-.05,.05-.1,.09-.15,.13-.07,.06-.15,.13-.23,.2-.02,.02-.05,.04-.07,.06-.06,.05-.13,.11-.19,.16-.05,.04-.11,.09-.16,.12-.55,.4-1.13,.73-1.76,1-.05,.02-.1,.04-.15,.06-.06,.02-.12,.05-.19,.07-.06,.02-.12,.05-.18,.06-.05,.01-.11,.04-.16,.05-.07,.02-.15,.05-.22,.07-.06,.01-.11,.04-.17,.05-.04,0-.07,.02-.11,.02-.05,.01-.11,.02-.16,.04-.05,.01-.1,.02-.15,.04-.06,.01-.12,.02-.19,.04-.06,.01-.12,.02-.18,.04-.04,0-.07,.01-.11,.02-.05,0-.1,.01-.15,.02-.05,0-.11,.01-.16,.02-.06,0-.13,.02-.19,.02s-.12,.01-.18,.02c-.09,0-.17,.01-.24,.02h-1.32c-.07,0-.15-.01-.21-.02h-.07s-.07,0-.11-.01c-.1-.01-.18-.02-.28-.04-.07-.01-.16-.02-.23-.04-.05,0-.1-.01-.15-.02-.04,0-.09-.01-.12-.02-.04,0-.06-.01-.1-.02-.06-.01-.13-.02-.19-.05h-.04c-.06-.01-.12-.04-.18-.05-.02,0-.05-.01-.07-.02-.06-.01-.13-.04-.2-.06-.01,0-.02,0-.04-.01-.05-.01-.1-.02-.13-.05-.05-.01-.1-.04-.15-.05-.01,0-.02,0-.04-.01-.06-.02-.12-.05-.2-.07-.07-.02-.15-.06-.22-.09-.44-.18-.87-.41-1.27-.66-.06-.04-.11-.07-.17-.11-.05-.02-.09-.06-.13-.09-.05-.04-.1-.06-.15-.1-.05-.04-.11-.07-.16-.11-.05-.04-.11-.09-.16-.12-.1-.07-.2-.16-.29-.24h.13c.28,.01,.56,.01,.85,0,.73-.01,1.46-.09,2.18-.23h.01c.73-.15,1.45-.38,2.13-.68,.74-.32,1.45-.73,2.1-1.21,1.33-.98,2.45-2.23,3.22-3.68,.5-.95,.85-1.99,1.05-3.04,.11-.55,.17-1.11,.18-1.67,.01-.51,0-1.02-.05-1.54-.02-.22-.05-.43-.09-.65-.05-.27-.18-.63-.26-.99,.22,.18,.44,.38,.63,.57,.04,.04,.08,.09,.12,.12,.05,.05,.1,.11,.16,.16,.04,.04,.07,.07,.1,.11,.02,.02,.04,.04,.06,.06,.04,.05,.09,.1,.12,.15h0c.05,.07,.1,.13,.15,.2,.04,.05,.09,.1,.12,.16,.02,.04,.06,.09,.09,.12,.2,.27,.37,.54,.52,.82,.02,.05,.06,.1,.09,.15,.05,.1,.1,.18,.15,.28,.04,.06,.06,.12,.09,.18,.04,.06,.06,.12,.09,.2,0,.02,.01,.04,.02,.06,.01,.04,.04,.09,.05,.12,.02,.07,.06,.15,.09,.22,.04,.1,.07,.2,.11,.29,.02,.06,.04,.12,.06,.2,.02,.07,.05,.16,.07,.23,.05,.16,.08,.32,.12,.48v.04c.01,.07,.04,.15,.05,.21,.01,.09,.04,.16,.05,.24,.01,.09,.02,.16,.04,.24,.1,.67,.12,1.37,.05,2.07l-.04,.02Z"/></g><g class="cls-45"><path class="cls-36" d="M167.99,37.05c-.61,4.83-4.96,8.27-9.78,7.76-.06,0-.12-.01-.18-.02-.37-.05-.73-.11-1.09-.21,1.82-.44,4.79-1.37,6.63-3,2.32-2.07,3.41-5.73,3.9-8.84,.51,1.33,.71,2.8,.52,4.32h-.01Z"/></g><g class="cls-44"><path class="cls-4" d="M152.95,31.41c-.28,.34-.54,.73-.57,1.17-.04,.44,.23,.93,.67,1,.3,.05,.61-.11,.82-.33,.22-.22,.35-.5,.51-.76,.55-.9,1.35-1.66,2.28-2.17,.27-.15,.55-.28,.77-.49,.22-.22,.35-.55,.23-.83-.29-.73-1.91,.23-2.34,.46-.9,.49-1.72,1.15-2.37,1.95h0Z"/><path class="cls-4" d="M153.48,35.04c-.07,.43-.49,.7-.9,.62-.43-.07-.7-.49-.62-.9,.07-.43,.49-.7,.9-.62,.43,.07,.7,.49,.62,.9Z"/></g><path class="cls-39" d="M162.13,44.35s-.11,.04-.16,.05c-.07,.02-.15,.05-.22,.07-.06,.01-.11,.04-.17,.05-.04,0-.07,.02-.11,.04-.05,.01-.11,.02-.16,.04-.05,.01-.1,.02-.15,.04-.06,.01-.12,.02-.2,.04-.06,.01-.12,.02-.18,.04-.04,0-.07,.01-.11,.02-.05,0-.1,.01-.15,.02-.05,0-.11,.01-.16,.02-.06,0-.13,.02-.21,.02-.06,0-.12,.01-.18,.02-.09,0-.17,.01-.24,.02h-1.32c-.07,0-.15,0-.21-.02h-.07s-.07,0-.11-.01c-.1,0-.18-.02-.28-.04-.07,0-.16-.02-.23-.04-.05,0-.1-.01-.15-.02-.04,0-.09-.01-.12-.02-.04,0-.06-.01-.1-.02-.06-.01-.13-.02-.2-.05h-.04c-.06-.01-.12-.04-.18-.05-.02,0-.05-.01-.07-.02-.06-.01-.13-.04-.2-.06-.01,0-.02,0-.04-.01-.05-.01-.09-.02-.13-.05-.05-.01-.1-.04-.15-.05-.01,0-.02,0-.04-.01-.06-.02-.12-.05-.2-.07-.07-.02-.15-.06-.22-.09-.44-.18-.87-.41-1.27-.66-.06-.04-.11-.07-.17-.11-.05-.02-.09-.06-.13-.09-.05-.04-.1-.06-.15-.1-.05-.04-.11-.07-.16-.12-.05-.04-.11-.09-.16-.12-.1-.09-.19-.16-.29-.24-.34-.29-.89-.4-2.06-2.65-1.17-2.24-1.04-4.05-1.04-4.05l10.49,3.13-.44,4.35s1.9,.82,1.84,.84l-.04-.05Z"/><path class="cls-10" d="M163.09,44.66v4.33l-9.21,3.27-9.21-3.56v-4.49l18.41,.45Z"/><path class="cls-39" d="M163.09,44.66l-9.35,3.34-9.06-3.79,9.05-3.39,9.37,3.84Z"/><path class="cls-35" d="M153.88,52.26v-4.26l-9.21-3.79v4.49l9.21,3.56Z"/><path class="cls-30" d="M161.17,49.67v-4.33l-9.16-3.88-.54,.2,9.09,3.9,.05,4.3,.56-.2Z"/><path class="cls-30" d="M157.13,51.1v-4.24l-9.17-3.88-.54,.2,9.1,3.9,.05,4.23,.56-.21Z"/><path class="cls-39" d="M157.13,46.81l-.61,.22,.05,4.28,.56-.21v-4.29Z"/><path class="cls-39" d="M151.71,51.43l-.61-.21,.05-4.33,.56,.22v4.32Z"/><path class="cls-39" d="M146.68,49.47l-.61-.23v-4.45l.62,.26v4.43Z"/><path class="cls-30" d="M160.95,43.78l-9.22,3.34-.62-.26,9.18-3.35,.66,.27Z"/><path class="cls-30" d="M155.91,41.7l-9.22,3.34-.62-.26,9.2-3.35,.65,.27Z"/><path class="cls-10" d="M141.24,40.58v4.33l9.21,3.27,9.21-3.56v-4.49l-18.41,.45Z"/><path class="cls-39" d="M141.24,40.58l9.34,3.34,9.07-3.79-9.05-3.39-9.37,3.84Z"/><path class="cls-35" d="M150.45,48.17v-4.26l9.21-3.79v4.49l-9.21,3.56Z"/><path class="cls-30" d="M143.15,45.59v-4.33l9.17-3.88,.54,.2-9.1,3.9-.05,4.3-.56-.2Z"/><path class="cls-30" d="M147.2,47.02v-4.24l9.16-3.88,.55,.2-9.1,3.9-.05,4.23-.56-.21Z"/><path class="cls-39" d="M147.2,42.72l.61,.22-.05,4.28-.56-.21v-4.29Z"/><path class="cls-39" d="M152.6,47.35l.61-.21-.04-4.33-.57,.22v4.32Z"/><path class="cls-39" d="M157.65,45.38l.6-.23v-4.45l-.62,.26,.02,4.43Z"/><path class="cls-30" d="M143.38,39.7l9.22,3.34,.62-.26-9.19-3.35-.65,.27Z"/><path class="cls-30" d="M148.41,37.61l9.22,3.34,.62-.26-9.18-3.35-.66,.27Z"/><g class="cls-45"><path class="cls-36" d="M144.57,47.22l5.88,2.65,3.44-1.87-1.45-.59-1.99,.76-5.88-2.09v1.13Z"/></g><g class="cls-45"><path class="cls-36" d="M159.65,44.61l-5.83,3.37-1.39-.56,7.22-2.8Z"/></g><path class="cls-38" d="M145.64,52.89c.16,.34,.22,.72,.21,.87-.04,.29-.24,.67-.44,.84-.11,.1-.22,.2-.33,.26-.07,.05-.15,.07-.22,.07-.16,0-.2,.16-.37,.15-.17,0-.24-.04-.48,.04-.07,.02-.12,.04-.16,.05-.07,0-.09,0-.13-.06-.06-.07-.1-.17-.34-.13-.24,.02-.32-.11-.32-.11,0,0-.3,.02-.5,.06-.21,.04-.06-.21-.16-.22-.1-.01-.54-.2-.54-.2,0,0,0-.01,.02-.04,.01-.04,.04-.07,.06-.13,.03-.05,.05-.11,.09-.18,.12-.28,.29-.67,.43-.99,.11-.28,.27-.49,.45-.63,.07-.06,.16-.11,.24-.16,.1-.05,.2-.09,.31-.1,0,0,.83-.09,1.48-.06,.33,.01,.57,.33,.73,.68h-.04Z"/><path class="cls-33" d="M143.74,55.05c.05,.11,.12,.11,.12,.11-.07,0-.09,0-.13-.06-.06-.07-.1-.17-.34-.13-.24,.02-.32-.11-.32-.11,0,0-.3,.02-.5,.06-.21,.04-.06-.21-.16-.22-.1-.01-.54-.2-.54-.2,0,0,0-.01,.02-.04,.01-.04,.04-.07,.06-.13,.1,.13,.4,.24,.5,.32,.11,.07-.04,.21,.09,.18,.13-.02,.43-.11,.56-.05,.13,.06,.13,.16,.27,.13,.13-.02,.32,.04,.37,.13h0Z"/><path class="cls-37" d="M145.64,52.89c.16,.34,.22,.72,.21,.87-.04,.29-.24,.67-.44,.84-.11,.1-.22,.2-.33,.26h-.1c-.32-.02-.34-.28-.55-.46-.18-.17-.48-.1-.72-.12-.13-.01-.26-.06-.37-.12-.15-.09-.27-.2-.34-.34-.15-.26-.17-.57-.06-.84,.04-.1,.1-.21,.06-.3-.02-.06-.06-.1-.11-.13,.07-.06,.16-.11,.24-.16,.1-.05,.19-.09,.3-.1,0,0,.83-.09,1.48-.06,.33,.01,.57,.33,.73,.68h-.01Z"/><path class="cls-5" d="M145.64,52.89c.16,.34,.22,.72,.21,.87-.04,.29-.24,.67-.44,.84-.11,.1-.22,.2-.33,.26-.07,.05-.15,.07-.22,.07-.16,0-.2,.16-.37,.15-.17,0-.24-.04-.48,.04-.07,.02-.12,.04-.16,.05-.07,0-.09,0-.13-.06-.06-.07-.1-.17-.34-.13-.24,.02-.32-.11-.32-.11,0,0-.3,.02-.5,.06-.21,.04-.06-.21-.16-.22-.1-.01-.54-.2-.54-.2,0,0,0-.01,.02-.04,.01-.04,.04-.07,.06-.13,.03-.05,.05-.11,.09-.18,.23,.02,.46,.06,.69,.06,.21,0,.41-.02,.62-.05,.3-.05,.6-.13,.89-.26,.54-.22,1.02-.57,1.41-1h-.02Z"/><path class="cls-38" d="M149.42,49.37c.4,.22,.95,.49,1.23,.63,.06,.04,.11,.06,.15,.07,.02,0,.05,.02,.05,.02,0,0-.24,.46-.32,.54-.02,.02-.01,.05,0,.07,.05,.07,.16,.15,.01,.23-.2,.11-.48,.29-.48,.29,0,0,.02,.17-.19,.32-.22,.15-.2,.24-.2,.35,0,.07,0,.1-.06,.15,0,0-.09,.05-.17,.07-.26,.1-.29,.17-.44,.3-.15,.13-.29,.02-.42,.13-.11,.1-.32,.11-.54,.1h-.15c-.28-.01-.72-.18-.95-.4-.06-.06-.15-.17-.22-.33-.24-.46-.46-1.26-.07-1.62,.53-.48,1.29-.98,1.29-.98,.1-.06,.21-.1,.33-.12,.06-.01,.12-.02,.18-.04,.29-.04,.61,.02,.95,.21h0Z"/><path class="cls-33" d="M150.8,50.08l.05,.02s-.24,.46-.32,.54c-.02,.02-.01,.05,0,.07,.05,.07,.16,.15,.01,.23-.2,.11-.48,.29-.48,.29,0,0,.02,.17-.19,.32-.22,.15-.2,.24-.2,.35,0,.07,0,.1-.06,.15,0,0,.06-.06,.02-.18-.04-.12,.08-.3,.21-.38,.12-.07,.07-.15,.13-.29,.07-.15,.39-.28,.51-.35,.07-.05,.02-.06,0-.1-.02-.02-.06-.06-.04-.12,.04-.12,.22-.44,.21-.62,.06,.04,.11,.06,.15,.07h-.01Z"/><path class="cls-37" d="M148.47,49.16c.07,.06,.12,.15,.15,.24,.04,.2-.06,.39-.05,.59,.01,.22,.17,.39,.26,.59,.16,.34,.15,.74-.02,1.07-.18,.33-.53,.56-.89,.61,.09,.11,.15,.26,.16,.4h-.15c-.28-.01-.72-.18-.95-.4-.06-.06-.15-.17-.22-.33-.24-.46-.46-1.26-.07-1.62,.52-.48,1.29-.98,1.29-.98,.1-.06,.21-.1,.33-.12,.06-.01,.12-.02,.18-.04h-.01Z"/><path class="cls-3" d="M150.53,50.71c.05,.07,.16,.15,.01,.23-.2,.11-.48,.29-.48,.29,0,0,.02,.17-.19,.32-.22,.15-.2,.24-.2,.35,0,.07,0,.1-.06,.15,0,0-.09,.05-.17,.07-.26,.1-.29,.17-.44,.3-.15,.13-.29,.02-.42,.13-.11,.1-.32,.11-.54,.1h-.15c-.28-.01-.72-.18-.95-.4-.06-.06-.15-.17-.22-.33,.18-.24,.41-.44,.71-.51,.23-.06,.49-.02,.68,.1,.1,.06,.15,.16,.23,.22,.09,.06,.22,0,.31-.02,.04-.01,.07-.02,.12-.04,.45-.15,.89-.35,1.28-.62,.15-.1,.28-.2,.42-.29,.01,0,.02-.02,.04-.04h.01Z"/><path class="cls-16" d="M145.57,51.78c-.15,.62-1.98,1.04-2.69,.65h-.02c-.68-.39,.2-1.02,.07-1.3-.35-.88-.09-1.26,.34-1.4,.19-.07,.41-.1,.62-.1,.68-.02,1.81,1.56,1.67,2.18v-.02Z"/><path class="cls-16" d="M146.66,48.53s.03,.05,.04,.06c.31,.56-.56,2.18-1.13,2.33-.58,.15-1.71-1.22-1.68-2,0-.1,.02-.17,.05-.23,.19-.43,.93-.09,1.08-.28,.81-.94,1.33-.43,1.65,.12Z"/><path class="cls-16" d="M148.21,50.38c.87,.9,.29,1.38-.28,1.63-.01,0-.04,.01-.05,.02-.6,.26-2.12-.74-2.21-1.34-.09-.56,1.22-1.49,2.01-1.5h.12c.77,.1,.21,.96,.4,1.17h0Z"/><path class="cls-16" d="M148.01,52.89s.04,.09,.05,.12c.24,.73-.78,.6-.89,.88-.45,1.21-1.15,.84-1.63,.41-.04-.04-.07-.09-.11-.13-.33-.59-.1-2.13,.35-2.44,.46-.32,1.85,.45,2.22,1.16h.01Z"/><path class="cls-16" d="M145.34,52.27c.39,.21,.35,1.41,0,1.96-.04,.05-.06,.1-.11,.13-.44,.44-.72-.34-.95-.32-1.02,.11-1.02-.52-.89-1.02,.01-.06,.05-.12,.1-.18,.35-.43,1.46-.77,1.84-.57h.01Z"/><path class="cls-15" d="M143.27,49.7c-.29,.23-.43,.66-.29,1.01,.04,.11,.1,.21,.1,.33,0,.16-.09,.29-.16,.44-.12,.27-.13,.54-.09,.82,0,.04,.01,.07,.01,.12-.68-.39,.2-1.02,.07-1.3-.35-.88-.09-1.26,.34-1.4h.01Z"/><path class="cls-15" d="M146.49,48.36c-.13-.16-.33-.24-.52-.26-.2-.01-.4,.09-.54,.23-.13,.15-.23,.37-.44,.4-.12,.02-.23-.04-.34-.07-.24-.09-.46-.04-.71,.02h-.02c.2-.43,.93-.09,1.09-.28,.8-.94,1.33-.43,1.65,.12-.06-.04-.11-.11-.16-.17Z"/><path class="cls-15" d="M148.21,50.38c.87,.9,.29,1.38-.28,1.63,0-.05,.06-.09,.1-.1,.12-.06,.24-.12,.32-.23,.11-.16,.11-.38,.04-.56-.06-.18-.18-.34-.28-.51-.05-.07-.1-.16-.11-.26-.02-.13,.01-.27,.02-.4,.01-.26-.08-.51-.27-.68-.03-.02-.05-.05-.07-.07h.12c.77,.1,.21,.96,.4,1.17h.01Z"/><path class="cls-15" d="M148.01,52.89s.04,.09,.05,.12c.24,.73-.78,.6-.89,.88-.45,1.21-1.15,.84-1.63,.41-.04-.04-.07-.09-.11-.13,0-.01,.01-.02,.02-.04,.17,.24,.4,.43,.72,.41,.32,0,.61-.23,.71-.52,.02-.09,.04-.17,.08-.24,.09-.15,.26-.22,.43-.27,.17-.05,.34-.07,.48-.18,.13-.11,.21-.32,.11-.45h.04Z"/><path class="cls-15" d="M143.53,53.52c.12,.21,.37,.34,.61,.34,.08,0,.17-.01,.24,0,.11,.04,.17,.15,.24,.23,.17,.18,.48,.24,.71,.13-.04,.05-.06,.1-.11,.13-.44,.44-.72-.34-.95-.32-1.02,.11-1.02-.52-.89-1.02,.01-.06,.05-.12,.1-.18v.1c-.05,.21-.06,.39,.05,.57h0Z"/><path class="cls-32" d="M144.07,53.83c-.17-.89-.52-.52,.38-.39,.79,.48,.13,1.16-.38,.39Z"/><path class="cls-32" d="M146.52,54.02c-.46-.17-.58-.16-.61-.21,0-.05,.11-.09,.48-.44,.87-.27,1.02,.55,.13,.65Z"/><path class="cls-32" d="M146.53,53.08c.71-.55,1.17,.11,.4,.59-.89,.04-.76,.24-.4-.59Z"/><path class="cls-32" d="M147.04,51.03c.28-.41,.34-.51,.43-.52,.09,.02,.13,.13,.34,.59-.05,.5-.26,.62-.44,.62-.17-.04-.37-.18-.33-.68,0,0-.04,.5,0,0h0Z"/><path class="cls-32" d="M147.21,50.42c-.23-.8-.09-.88,.4-.2,.23,.8,.08,.88-.4,.2Z"/><path class="cls-32" d="M145.85,49.44c-.49-.06-.61-.05-.66-.11-.01-.07,.07-.15,.38-.55,.45-.21,.67-.09,.74,.07,.05,.16,0,.4-.46,.59,0,0,.46-.18,0,0h0Z"/><path class="cls-32" d="M145.17,49.15c-.41,.24-.54,.27-.59,.23-.01-.05,.05-.15,.41-.48,.43-.24,.54-.27,.59-.23,0,.05-.05,.15-.41,.48,.37-.32,0,0,0,0Z"/><path class="cls-32" d="M143.25,51.78c-.11-.83,.1-.91,.54-.2,.11,.84-.1,.9-.54,.2Z"/><path class="cls-32" d="M143.34,50.33c.28-.39,.38-.46,.44-.45,.04,.04,.03,.16-.17,.61-.28,.39-.38,.46-.44,.45-.04-.05-.02-.16,.17-.61-.19,.44,0,0,0,0Z"/><path class="cls-34" d="M143.99,51.82c-.27-.29-.83-.73-.49-1.33,.34-.6,1.13-.38,1.13-.38,0,0-.4-.54,.01-.87,.41-.34,1.26,.22,1.26,.22,0,0,.68-.3,1.1,.26,.43,.57,.57,.74,.08,1.32,0,0,.34,.09,.44,.49,.11,.41-.17,1.54-.46,1.59-.29,.05-.44-.06-.44-.06,0,0-.1,.74-.43,.87-.33,.13-1.1,.17-1.23-.37,0,0-1.32,.32-1.21-.7s.24-1.05,.24-1.05h-.01Z"/><path class="cls-27" d="M144.24,51.7c-.22-.24-.68-.6-.4-1.09,.28-.49,.93-.3,.93-.3,0,0-.33-.44,0-.71,.34-.28,1.02,.17,1.02,.17,0,0,.56-.26,.9,.21,.34,.46,.46,.61,.07,1.07,0,0,.28,.06,.37,.4,.09,.34-.15,1.26-.38,1.29-.24,.04-.37-.05-.37-.05,0,0-.08,.61-.35,.71-.27,.11-.89,.15-1.01-.29,0,0-1.07,.27-.99-.57,.09-.83,.19-.85,.19-.85h.01Z"/><path class="cls-22" d="M144.76,51.74c.05,.13,.21,.22,.35,.17,0,.12-.03,.26,.02,.37,.05,.11,.16,.22,.28,.2,.15-.02,.23-.18,.28-.32,.13,.16,.42,.15,.54-.01,.12-.17,.04-.44-.15-.51,.1-.04,.18-.12,.2-.23,.01-.11-.05-.22-.15-.26-.1-.04-.23,.02-.26,.12-.01-.09-.02-.18-.07-.26-.05-.07-.13-.13-.22-.13-.1,0-.17,.1-.19,.2-.02,.1,0,.2,.01,.29-.02-.11-.41-.02-.46,0-.12,.07-.21,.22-.16,.37h-.02Z"/><path class="cls-2" d="M145.8,51.92c-.09,.09-.22,.1-.34,.1-.19,0-.39-.05-.57-.11"/><path class="cls-31" d="M144.76,51.71c.1,.05,.15,.15,.1,.23-.04,.09-.15,.11-.24,.07-.1-.05-.15-.15-.1-.23,.04-.09,.15-.11,.24-.07Z"/><path class="cls-2" d="M145.88,51.83c-.12,.04-.26-.02-.37-.09-.17-.11-.34-.24-.47-.39"/><path class="cls-31" d="M145.03,51.1c.06,.09,.06,.21-.02,.27-.07,.06-.2,.02-.26-.06-.06-.09-.06-.21,.02-.27,.07-.06,.2-.02,.26,.06Z"/><path class="cls-2" d="M145.86,51.86c.05-.12,0-.26-.07-.37-.1-.18-.22-.35-.37-.49"/><path class="cls-31" d="M145.18,50.97c.09,.07,.21,.06,.27,0,.06-.07,.04-.2-.05-.27-.09-.07-.21-.06-.27,0-.06,.07-.04,.2,.05,.27Z"/><path class="cls-23" d="M144.71,52.96c-.1,0-.21,0-.29-.07-.09-.06-.13-.17-.15-.27-.01-.1,0-.18,.03-.27,0-.05,.02-.1,.05-.12,.02-.04,.09-.05,.13-.02,.07,.04,.1,.12,.11,.18,0,.07,0,.15,.07,.21,.06,.06,.16,.06,.23,.06,.02,0,.17-.02,.18,0,0,.02-.06,.09-.07,.1-.06,.1-.16,.2-.31,.21h.01Z"/><path class="cls-21" d="M144.88,52.71c-.06,.1-.13,.15-.22,.15-.07,0-.16,0-.21-.05-.05-.04-.1-.11-.1-.18s0-.15,.02-.21c0-.02,0-.05,.02-.06v-.02s.03-.01,.05,0c.05,.02,.05,.1,.06,.11,0,.07,.01,.15,.07,.21,.07,.07,.16,.07,.24,.07h.05Z"/><path class="cls-23" d="M146.2,50.06c.1,0,.2,.04,.28,.11,.07,.07,.11,.18,.11,.28s-.04,.18-.06,.26c-.01,.05-.04,.09-.07,.12-.04,.02-.08,.04-.13,0-.06-.05-.09-.13-.07-.2,.01-.06,0-.15-.04-.21-.05-.07-.15-.09-.22-.09-.02,0-.17,0-.18-.02,0-.02,.07-.07,.09-.09,.09-.1,.18-.17,.33-.16h-.02Z"/><path class="cls-21" d="M145.99,50.28c.07-.09,.15-.12,.23-.12s.15,.02,.2,.07c.05,.05,.07,.12,.07,.2s-.02,.13-.05,.21c0,.02-.01,.05-.02,.06,0,0,0,.01-.01,.01,0,0-.04,.01-.05,0-.04-.02-.04-.1-.04-.12,0-.07,0-.15-.05-.22-.06-.07-.15-.1-.23-.1h-.05Z"/><path class="cls-21" d="M145.4,53.08s.06,.09,.1,.1c.05,.02,.1,.02,.13,0,.04-.01,.06-.05,.06-.09s-.04-.06-.06-.09c-.02-.02-.06-.05-.07-.09-.01-.04,0-.09-.04-.11-.04-.04-.1,0-.12,.02-.05,.06-.04,.18,0,.24Z"/></g></g></svg>