<svg width="24" height="24" viewBox="0 0 24 24" fill="none" xmlns="http://www.w3.org/2000/svg">
<path d="M0 0H4V4H0V0Z" fill="#656565"/>
<path d="M6.66667 0H10.6667V4H6.66667V0Z" fill="#656565"/>
<path d="M13.3333 0H17.3333V4H13.3333V0Z" fill="#656565"/>
<path d="M20 0H24V4H20V0Z" fill="#656565"/>
<path d="M0 6.66667H4V10.6667H0V6.66667Z" fill="#656565"/>
<path d="M6.66667 6.66667H10.6667V10.6667H6.66667V6.66667Z" fill="#656565"/>
<path d="M13.3333 6.66667H17.3333V10.6667H13.3333V6.66667Z" fill="#656565"/>
<path d="M20 6.66667H24V10.6667H20V6.66667Z" fill="#656565"/>
<path d="M0 13.3333H4V17.3333H0V13.3333Z" fill="#656565"/>
<path d="M6.66667 13.3333H10.6667V17.3333H6.66667V13.3333Z" fill="#656565"/>
<path d="M13.3333 13.3333H17.3333V17.3333H13.3333V13.3333Z" fill="#656565"/>
<path d="M20 13.3333H24V17.3333H20V13.3333Z" fill="#656565"/>
<path d="M0 20H4V24H0V20Z" fill="#656565"/>
<path d="M6.66667 20H10.6667V24H6.66667V20Z" fill="#656565"/>
<path d="M13.3333 20H17.3333V24H13.3333V20Z" fill="#656565"/>
<path d="M20 20H24V24H20V20Z" fill="#656565"/>
</svg>
