<svg width="24" height="24" viewBox="0 0 24 24" fill="none" xmlns="http://www.w3.org/2000/svg">
<rect width="24" height="24" fill="#3F51B5"/>
<rect x="2.40002" y="2.40002" width="3" height="3" fill="white"/>
<rect x="7.80005" y="2.40002" width="3" height="3" fill="white"/>
<rect x="13.2001" y="2.40002" width="3" height="3" fill="white"/>
<rect x="18.6" y="2.40002" width="3" height="3" fill="white"/>
<rect x="2.40002" y="7.80005" width="3" height="3" fill="white"/>
<rect x="7.80005" y="7.80005" width="3" height="3" fill="white"/>
<rect x="13.2001" y="7.80005" width="3" height="3" fill="white"/>
<rect x="18.6" y="7.80005" width="3" height="3" fill="white"/>
<rect x="2.40002" y="13.2" width="3" height="3" fill="white"/>
<rect x="7.80005" y="13.2" width="3" height="3" fill="white"/>
<rect x="13.2001" y="13.2" width="3" height="3" fill="white"/>
<rect x="18.6" y="13.2" width="3" height="3" fill="white"/>
<rect x="2.40002" y="18.6" width="3" height="3" fill="white"/>
<rect x="7.80005" y="18.6" width="3" height="3" fill="white"/>
<rect x="13.2001" y="18.6" width="3" height="3" fill="white"/>
<rect x="18.6" y="18.6" width="3" height="3" fill="white"/>
</svg>
