<svg width="24" height="24" viewBox="0 0 24 24" fill="none" xmlns="http://www.w3.org/2000/svg">
<path d="M0 0H3V3H0V0Z" fill="#656565"/>
<path d="M5.25 0H8.25V3H5.25V0Z" fill="#656565"/>
<path d="M10.5 0H13.5V3H10.5V0Z" fill="#656565"/>
<path d="M15.75 0H18.75V3H15.75V0Z" fill="#656565"/>
<path d="M21 0H24V3H21V0Z" fill="#656565"/>
<path d="M0 5.25H3V8.25H0V5.25Z" fill="#656565"/>
<path d="M5.25 5.25H8.25V8.25H5.25V5.25Z" fill="#656565"/>
<path d="M10.5 5.25H13.5V8.25H10.5V5.25Z" fill="#656565"/>
<path d="M15.75 5.25H18.75V8.25H15.75V5.25Z" fill="#656565"/>
<path d="M21 5.25H24V8.25H21V5.25Z" fill="#656565"/>
<path d="M0 10.5H3V13.5H0V10.5Z" fill="#656565"/>
<path d="M5.25 10.5H8.25V13.5H5.25V10.5Z" fill="#656565"/>
<path d="M10.5 10.5H13.5V13.5H10.5V10.5Z" fill="#656565"/>
<path d="M15.75 10.5H18.75V13.5H15.75V10.5Z" fill="#656565"/>
<path d="M21 10.5H24V13.5H21V10.5Z" fill="#656565"/>
<path d="M0 15.75H3V18.75H0V15.75Z" fill="#656565"/>
<path d="M5.25 15.75H8.25V18.75H5.25V15.75Z" fill="#656565"/>
<path d="M10.5 15.75H13.5V18.75H10.5V15.75Z" fill="#656565"/>
<path d="M15.75 15.75H18.75V18.75H15.75V15.75Z" fill="#656565"/>
<path d="M21 15.75H24V18.75H21V15.75Z" fill="#656565"/>
<path d="M0 21H3V24H0V21Z" fill="#656565"/>
<path d="M5.25 21H8.25V24H5.25V21Z" fill="#656565"/>
<path d="M10.5 21H13.5V24H10.5V21Z" fill="#656565"/>
<path d="M15.75 21H18.75V24H15.75V21Z" fill="#656565"/>
<path d="M21 21H24V24H21V21Z" fill="#656565"/>
</svg>
