<svg width="24" height="24" viewBox="0 0 24 24" fill="none" xmlns="http://www.w3.org/2000/svg">
<rect width="24" height="24" fill="#3F51B5"/>
<rect x="2" y="2" width="2.4" height="2.4" fill="white"/>
<rect x="6.40002" y="2" width="2.4" height="2.4" fill="white"/>
<rect x="10.8" y="2" width="2.4" height="2.4" fill="white"/>
<rect x="15.2" y="2" width="2.4" height="2.4" fill="white"/>
<rect x="19.6" y="2" width="2.4" height="2.4" fill="white"/>
<rect x="2" y="6.40002" width="2.4" height="2.4" fill="white"/>
<rect x="6.40002" y="6.40002" width="2.4" height="2.4" fill="white"/>
<rect x="10.8" y="6.40002" width="2.4" height="2.4" fill="white"/>
<rect x="15.2" y="6.40002" width="2.4" height="2.4" fill="white"/>
<rect x="19.6" y="6.40002" width="2.4" height="2.4" fill="white"/>
<rect x="2" y="10.8" width="2.4" height="2.4" fill="white"/>
<rect x="6.40002" y="10.8" width="2.4" height="2.4" fill="white"/>
<rect x="10.8" y="10.8" width="2.4" height="2.4" fill="white"/>
<rect x="15.2" y="10.8" width="2.4" height="2.4" fill="white"/>
<rect x="19.6" y="10.8" width="2.4" height="2.4" fill="white"/>
<rect x="2" y="15.2" width="2.4" height="2.4" fill="white"/>
<rect x="6.40002" y="15.2" width="2.4" height="2.4" fill="white"/>
<rect x="10.8" y="15.2" width="2.4" height="2.4" fill="white"/>
<rect x="15.2" y="15.2" width="2.4" height="2.4" fill="white"/>
<rect x="19.6" y="15.2" width="2.4" height="2.4" fill="white"/>
<rect x="2" y="19.6" width="2.4" height="2.4" fill="white"/>
<rect x="6.40002" y="19.6" width="2.4" height="2.4" fill="white"/>
<rect x="10.8" y="19.6" width="2.4" height="2.4" fill="white"/>
<rect x="15.2" y="19.6" width="2.4" height="2.4" fill="white"/>
<rect x="19.6" y="19.6" width="2.4" height="2.4" fill="white"/>
</svg>
