<svg class="scaling-svg" width="41" viewBox="0 0 41 54" fill="none" xmlns="http://www.w3.org/2000/svg"><path d="M7.18549 4.13281C5.5045 4.13281 4.12915 5.51094 4.12915 7.19531V50.0703C4.12915 51.7547 5.5045 53.1328 7.18549 53.1328H37.7489C39.4299 53.1328 40.8052 51.7547 40.8052 50.0703V16.3828L28.5799 4.13281H7.18549Z" fill="#F6F8FB"></path><path fill-rule="evenodd" clip-rule="evenodd" d="M4.12915 37.8203V50.0703C4.12915 51.7547 5.5045 53.1328 7.18549 53.1328H37.7489C39.4299 53.1328 40.8052 51.7547 40.8052 50.0703V37.8203C40.8052 39.5047 39.4299 40.8828 37.7489 40.8828H7.18549C5.5045 40.8828 4.12915 39.5047 4.12915 37.8203Z" fill="#2C95FF"></path><path d="M31.6362 16.3828H40.8052L28.5798 4.13281V13.3203C28.5798 15.0047 29.9552 16.3828 31.6362 16.3828Z" fill="#2C95FF"></path><path d="M40.8052 25.5703L31.6362 16.3828H40.8052V25.5703Z" fill="#D9E8FF"></path><path d="M12.7166 44.0591C12.7166 43.7121 12.9898 43.333 13.4297 43.333H15.8549C17.2205 43.333 18.4499 44.2491 18.4499 46.004C18.4499 47.6667 17.2205 48.5935 15.8549 48.5935H14.1019V49.9833C14.1019 50.4463 13.8081 50.7086 13.4297 50.7086C13.0834 50.7086 12.7166 50.4471 12.7166 49.9833V44.06V44.0591ZM14.1019 44.6578V47.2786H15.8549C16.559 47.2786 17.1154 46.6561 17.1154 46.004C17.1154 45.2688 16.559 44.6578 15.8549 44.6578H14.1019Z" fill="#FAFAFA"></path><path d="M20.5064 50.7079C20.1601 50.7079 19.7817 50.5188 19.7817 50.0566V44.0807C19.7817 43.7032 20.1601 43.4277 20.5064 43.4277H22.911C27.7087 43.4277 27.6037 50.7079 23.0054 50.7079H20.5064ZM21.1679 44.7122V49.4251H22.9102C25.7448 49.4251 25.8712 44.7122 22.9102 44.7122H21.1679Z" fill="#FAFAFA"></path><path d="M29.3051 44.7958V46.4684H31.9822C32.3606 46.4684 32.7389 46.8475 32.7389 47.2143C32.7389 47.5613 32.3606 47.8459 31.9822 47.8459H29.3051V50.0547C29.3051 50.4231 29.0442 50.706 28.6765 50.706C28.2144 50.706 27.9321 50.4231 27.9321 50.0547V44.0787C27.9321 43.7013 28.2161 43.4258 28.6765 43.4258H32.3622C32.8242 43.4258 33.0975 43.7004 33.0975 44.0787C33.0975 44.4159 32.8242 44.7942 32.3622 44.7942H29.3051V44.7958Z" fill="#FAFAFA"></path><path d="M7.98965 7.8623C6.35399 7.8623 4.91972 8.7401 4.13184 10.0491V22.9864C4.45283 23.2616 4.86954 23.4282 5.32557 23.4282C6.3398 23.4282 7.16146 22.6057 7.16146 21.5923V12.3631C7.16146 11.9062 7.53353 11.5341 7.98965 11.5341C8.44658 11.5341 8.81865 11.9062 8.81865 12.3631V27.2958C8.81865 29.1602 7.3018 30.6779 5.43654 30.6779C4.9743 30.6779 4.53353 30.5845 4.13184 30.4158V34.2282C4.55482 34.3077 4.99087 34.3497 5.43654 34.3497C9.32618 34.3497 12.4904 31.1854 12.4904 27.2958V12.3631C12.4904 9.88178 10.4718 7.8623 7.98965 7.8623Z" fill="#D9E7FF"></path><path d="M14.5743 11.139V26.0717C14.5743 29.9614 11.4101 33.1256 7.52044 33.1256C6.29325 33.1256 5.13787 32.8107 4.1318 32.2566C1.94913 31.0564 0.466553 28.7342 0.466553 26.0717V10.474C0.466553 5.17606 4.7764 0.866211 10.0736 0.866211C13.117 0.866211 15.8342 2.28841 17.595 4.50372H10.0744C6.80077 4.50372 4.13833 7.20043 4.13833 10.474V26.0717C4.13833 27.9362 5.65518 29.4538 7.52044 29.4538C9.3857 29.4538 10.9026 27.9362 10.9026 26.0717V11.139C10.9026 10.6821 10.5305 10.31 10.0736 10.31C9.61744 10.31 9.24536 10.6821 9.24536 11.139V20.3682C9.24536 21.3816 8.4237 22.2041 7.40947 22.2041C6.39525 22.2041 5.57359 21.3816 5.57359 20.3682V11.139C5.57359 8.65772 7.59225 6.63824 10.0736 6.63824C12.5557 6.63824 14.5743 8.65772 14.5743 11.139Z" fill="url(#paint0_linear_829_20297)"></path><path d="M10.0735 0.866211C9.72996 0.866211 9.39069 0.884733 9.0564 0.920064C11.686 1.19651 14.003 2.53711 15.5661 4.50372H17.5949C15.8341 2.28841 13.117 0.866211 10.0735 0.866211Z" fill="url(#paint1_linear_829_20297)"></path><path d="M10.0734 6.63867C9.72462 6.63867 9.38543 6.67988 9.05921 6.75543C11.054 7.21694 12.5454 9.00697 12.5454 11.1395V26.0722C12.5454 29.6169 9.91734 32.5587 6.50732 33.0526C6.83827 33.1004 7.17632 33.126 7.52033 33.126C11.41 33.126 14.5742 29.9618 14.5742 26.0722V11.1395C14.5742 8.65815 12.5556 6.63867 10.0734 6.63867Z" fill="url(#paint2_linear_829_20297)"></path><path d="M4.1384 26.0719V10.4742C4.1384 7.20062 6.80085 4.50391 10.0744 4.50391H8.04492C4.77133 4.50391 2.10889 7.20062 2.10889 10.4742V26.0719C2.10889 27.9364 3.62574 29.454 5.491 29.454C5.83419 29.454 6.18676 29.4023 6.5337 29.3067C5.14855 28.8834 4.1384 27.5933 4.1384 26.0719Z" fill="url(#paint3_linear_829_20297)"></path><path d="M9.81638 10.3096C8.38031 10.3096 7.21619 11.4737 7.21619 12.9098V20.3678C7.21619 21.0059 6.88981 21.5689 6.39453 21.8977C6.68583 22.0911 7.03424 22.2037 7.40957 22.2037C8.4238 22.2037 9.24546 21.3812 9.24546 20.3678V11.1386C9.24546 10.702 9.5849 10.3438 10.0133 10.3128V10.3096H9.81638Z" fill="url(#paint4_linear_829_20297)"></path><path d="M16.7998 23.7324L24.9665 23.7324" stroke="#B7D3FF" stroke-width="2" stroke-linecap="round"></path><path d="M16.7998 29.4492L31.4998 29.4492" stroke="#B7D3FF" stroke-width="2" stroke-linecap="round"></path><path d="M16.7998 34.3496L36.3998 34.3496" stroke="#B7D3FF" stroke-width="2" stroke-linecap="round"></path><defs><linearGradient id="paint0_linear_829_20297" x1="0.466553" y1="16.9959" x2="20.1605" y2="16.9959" gradientUnits="userSpaceOnUse"><stop stop-color="#FFE177"></stop><stop offset="1" stop-color="#FEB237"></stop></linearGradient><linearGradient id="paint1_linear_829_20297" x1="0.359838" y1="2.68496" x2="13.8592" y2="2.68496" gradientUnits="userSpaceOnUse"><stop stop-color="#FFE177"></stop><stop offset="1" stop-color="#FEB237"></stop></linearGradient><linearGradient id="paint2_linear_829_20297" x1="-4.64468" y1="19.8824" x2="14.5404" y2="19.8824" gradientUnits="userSpaceOnUse"><stop stop-color="#FFE177"></stop><stop offset="1" stop-color="#FEB237"></stop></linearGradient><linearGradient id="paint3_linear_829_20297" x1="-5.5692" y1="16.979" x2="9.33559" y2="16.979" gradientUnits="userSpaceOnUse"><stop stop-color="#FFE177"></stop><stop offset="1" stop-color="#FEB237"></stop></linearGradient><linearGradient id="paint4_linear_829_20297" x1="1.39357" y1="16.2566" x2="10.0702" y2="16.2566" gradientUnits="userSpaceOnUse"><stop stop-color="#FFE177"></stop><stop offset="1" stop-color="#FEB237"></stop></linearGradient></defs></svg>