<svg xmlns="http://www.w3.org/2000/svg" class="editor-view__logo-preview" data-v-04588dbe="" data-v-0a059b40="" width="418.3427734375" height="184" viewBox="0 0 418.3427734375 184"><svg id="mark" viewBox="0 0 64 64" width="184" height="184" x="0" y="0" data-v-04588dbe="" style="fill: rgb(255, 255, 255);"><rect x="0" y="0" width="100%" height="100%" fill="none" data-v-04588dbe=""></rect><g data-v-04588dbe=""><g xmlns="http://www.w3.org/2000/svg"><path d="M33.5,8.5c-1.9-2-5.1-1.9-7.1,0L20.9,14h-5.2c-0.3,0-0.5,0.1-0.7,0.3l-7.1,7.1C7.3,21.9,7,22.7,7,23.5s0.3,1.6,0.9,2.1   l0.7,0.7c1.1,1.1,2.6,1.8,4.2,1.8s3.1-0.6,4.2-1.8l1.4-1.4c0.1-0.1,0.1-0.2,0.2-0.3c0.8,0.6,1.8,0.9,2.8,0.9c0.2,0,0.5,0,0.7-0.1   c-0.2,1.5,0.2,3.1,1.4,4.3c1,1,2.3,1.5,3.5,1.5c0.2,0,0.5,0,0.7-0.1c-0.2,1.5,0.2,3.1,1.4,4.3c0.8,0.8,1.8,1.3,2.8,1.4l-5.5,5.5   c-0.9,0.9-1.5,2.2-1.5,3.5s0.5,2.6,1.5,3.5c1,1,2.3,1.5,3.5,1.5c1,0,2-0.3,2.8-0.9V56c0,0.6,0.4,1,1,1s1-0.4,1-1v-8l14-14v22   c0,0.6,0.4,1,1,1s1-0.4,1-1V31.9c1.4-2,1.2-4.7-0.5-6.4c-1.2-1.2-2.8-1.6-4.3-1.4c0.2-1.5-0.2-3.1-1.4-4.3   c-1.2-1.2-2.8-1.6-4.3-1.4c0.2-1.5-0.2-3.1-1.4-4.3c-1.2-1.2-2.8-1.6-4.3-1.4C35.1,11.2,34.7,9.6,33.5,8.5z M12.5,19.6l1.8,1.8   l-1.1,1.1c-0.6,0.6-1.6,0.6-2.1,0l-0.7-0.7L12.5,19.6z M15.7,24.9c-1.5,1.5-4.1,1.5-5.7,0l-0.7-0.7C9.1,24,9,23.8,9,23.5   s0.1-0.5,0.3-0.7l0.4-0.4l0.7,0.7c0.5,0.5,1.1,0.7,1.8,0.7c0.7,0,1.3-0.3,1.8-0.7l1.4-1.4c0.1-0.1,0.1-0.2,0.1-0.4   s-0.1-0.3-0.1-0.4l-2.1-2.1l2.9-2.9h2.8l-1,1c-1.7,1.7-1.9,4.4-0.6,6.3c-0.1,0-0.2,0.1-0.3,0.2L15.7,24.9z M19.4,22.6   c-0.6-0.6-0.9-1.3-0.9-2.1s0.3-1.6,0.9-2.1l2.7-2.7c0,0,0,0,0,0l5.8-5.8C28.4,9.3,29.2,9,30,9c0.8,0,1.6,0.3,2.1,0.9   c0.6,0.6,0.9,1.3,0.9,2.1s-0.3,1.6-0.9,2.1l-8.5,8.5C22.5,23.7,20.5,23.7,19.4,22.6z M46.9,26c0.8,0,1.6,0.3,2.1,0.9   c0.6,0.6,0.9,1.3,0.9,2.1s-0.3,1.6-0.9,2.1L32.3,47.8c-1.2,1.2-3.1,1.2-4.2,0c-0.6-0.6-0.9-1.3-0.9-2.1s0.3-1.6,0.9-2.1l16.8-16.8   C45.4,26.3,46.1,26,46.9,26z M41.3,20.3c0.8,0,1.6,0.3,2.1,0.9c0.6,0.6,0.9,1.3,0.9,2.1c0,0.8-0.3,1.6-0.9,2.1l-8.5,8.5   c-1.1,1.1-3.1,1.1-4.2,0c-0.6-0.6-0.9-1.3-0.9-2.1s0.3-1.6,0.9-2.1l8.5-8.5C39.7,20.6,40.5,20.3,41.3,20.3z M35.6,14.7   c0.8,0,1.6,0.3,2.1,0.9c0.6,0.6,0.9,1.3,0.9,2.1c0,0.8-0.3,1.6-0.9,2.1l-8.5,8.5c-1.1,1.1-3.1,1.1-4.2,0c-0.6-0.6-0.9-1.3-0.9-2.1   c0-0.8,0.3-1.6,0.9-2.1l8.5-8.5C34.1,15,34.8,14.7,35.6,14.7z"></path><path d="M28.1,47.5l0.2,0.2c0.5,0.5,1.1,0.7,1.8,0.7c0.7,0,1.3-0.3,1.8-0.7l1.6-1.6c0.2-0.2,0.2-0.5,0-0.7l-3-3   c-0.2-0.2-0.5-0.2-0.7,0L28.1,44C27.2,45,27.2,46.5,28.1,47.5z M28.8,44.7l1.2-1.2l2.3,2.3L31.1,47c-0.6,0.6-1.6,0.6-2.1,0   l-0.2-0.2C28.2,46.2,28.2,45.3,28.8,44.7z"></path></g></g></svg><svg id="name" viewBox="0 0 218.3427734375 34.94921875" width="218.3427734375" height="34.94921875" x="200" y="74.5250015258789" data-v-04588dbe="" style="fill: rgb(255, 255, 255);"><rect x="0" y="0" width="100%" height="100%" fill="none" data-v-04588dbe=""></rect><g data-v-04588dbe=""><path xmlns="http://www.w3.org/2000/svg" d="M15.21 24.44L15.21 1.80L21.94 1.80L21.94 24.44Q21.94 27.56 20.56 29.95Q19.18 32.34 16.67 33.65Q14.15 34.95 10.98 34.95L10.98 34.95Q5.79 34.95 2.90 32.31Q0 29.67 0 24.84L0 24.84L6.78 24.84Q6.78 27.25 7.79 28.39Q8.80 29.54 10.98 29.54L10.98 29.54Q12.92 29.54 14.06 28.21Q15.21 26.89 15.21 24.44L15.21 24.44ZM26.28 22.42L26.28 22.12Q26.28 18.51 27.67 15.68Q29.06 12.85 31.68 11.30Q34.30 9.75 37.76 9.75L37.76 9.75Q42.68 9.75 45.79 12.76Q48.90 15.77 49.26 20.93L49.26 20.93L49.30 22.60Q49.30 28.19 46.18 31.57Q43.06 34.95 37.80 34.95Q32.55 34.95 29.41 31.58Q26.28 28.21 26.28 22.42L26.28 22.42ZM32.77 22.60L32.77 22.60Q32.77 26.05 34.07 27.89Q35.38 29.72 37.80 29.72L37.80 29.72Q40.16 29.72 41.49 27.91Q42.81 26.10 42.81 22.12L42.81 22.12Q42.81 18.73 41.49 16.87Q40.16 15.00 37.76 15.00L37.76 15.00Q35.38 15.00 34.07 16.86Q32.77 18.71 32.77 22.60ZM75.20 22.21L75.20 22.57Q75.20 28.41 72.71 31.68Q70.21 34.95 65.74 34.95L65.74 34.95Q61.79 34.95 59.43 31.92L59.43 31.92L59.14 34.50L53.30 34.50L53.30 0L59.79 0L59.79 12.38Q62.04 9.75 65.70 9.75L65.70 9.75Q70.15 9.75 72.67 13.02Q75.20 16.28 75.20 22.21L75.20 22.21ZM68.71 22.10L68.71 22.10Q68.71 18.42 67.54 16.72Q66.37 15.03 64.06 15.03L64.06 15.03Q60.96 15.03 59.79 17.56L59.79 17.56L59.79 27.16Q60.98 29.72 64.10 29.72L64.10 29.72Q67.25 29.72 68.24 26.62L68.24 26.62Q68.71 25.13 68.71 22.10ZM110.75 15.70L110.75 21.14L97.82 21.14L97.82 34.50L91.08 34.50L91.08 1.80L112.37 1.80L112.37 7.25L97.82 7.25L97.82 15.70L110.75 15.70ZM122.70 10.20L122.70 34.50L116.19 34.50L116.19 10.20L122.70 10.20ZM115.81 3.91L115.81 3.91Q115.81 2.45 116.79 1.50Q117.76 0.56 119.45 0.56L119.45 0.56Q121.11 0.56 122.10 1.50Q123.09 2.45 123.09 3.91L123.09 3.91Q123.09 5.39 122.09 6.33Q121.09 7.28 119.45 7.28Q117.81 7.28 116.81 6.33Q115.81 5.39 115.81 3.91ZM127.92 10.20L134.02 10.20L134.23 13.00Q136.83 9.75 141.21 9.75L141.21 9.75Q145.08 9.75 146.96 12.02Q148.85 14.29 148.89 18.80L148.89 18.80L148.89 34.50L142.40 34.50L142.40 18.96Q142.40 16.89 141.50 15.96Q140.61 15.03 138.52 15.03L138.52 15.03Q135.78 15.03 134.41 17.36L134.41 17.36L134.41 34.50L127.92 34.50L127.92 10.20ZM152.80 22.17L152.80 22.17Q152.80 16.49 155.35 13.12Q157.90 9.75 162.33 9.75L162.33 9.75Q165.87 9.75 168.19 12.40L168.19 12.40L168.19 0L174.70 0L174.70 34.50L168.84 34.50L168.52 31.92Q166.10 34.95 162.28 34.95L162.28 34.95Q157.99 34.95 155.40 31.57Q152.80 28.19 152.80 22.17ZM159.29 22.64L159.29 22.64Q159.29 26.05 160.48 27.87Q161.67 29.69 163.94 29.69L163.94 29.69Q166.95 29.69 168.19 27.16L168.19 27.16L168.19 17.56Q166.97 15.03 163.99 15.03L163.99 15.03Q159.29 15.03 159.29 22.64ZM190.92 34.95L190.92 34.95Q185.57 34.95 182.21 31.67Q178.86 28.39 178.86 22.93L178.86 22.93L178.86 22.30Q178.86 18.64 180.27 15.76Q181.69 12.87 184.28 11.31Q186.88 9.75 190.20 9.75L190.20 9.75Q195.19 9.75 198.05 12.89Q200.91 16.04 200.91 21.81L200.91 21.81L200.91 24.46L185.44 24.46Q185.75 26.84 187.34 28.28Q188.92 29.72 191.34 29.72L191.34 29.72Q195.10 29.72 197.21 27.00L197.21 27.00L200.40 30.57Q198.94 32.64 196.44 33.79Q193.95 34.95 190.92 34.95ZM190.18 15.00L190.18 15.00Q188.25 15.00 187.04 16.31Q185.84 17.61 185.50 20.04L185.50 20.04L194.53 20.04L194.53 19.52Q194.49 17.36 193.37 16.18Q192.24 15.00 190.18 15.00ZM218.34 10.04L218.25 16.28Q216.93 16.10 215.92 16.10L215.92 16.10Q212.23 16.10 211.09 18.60L211.09 18.60L211.09 34.50L204.60 34.50L204.60 10.20L210.73 10.20L210.91 13.09Q212.86 9.75 216.32 9.75L216.32 9.75Q217.40 9.75 218.34 10.04L218.34 10.04Z"></path></g></svg><svg id="slogan" viewBox="0 0 0 0" width="0" height="NaN" x="200" y="113.4749984741211" data-v-04588dbe="" style="fill: rgb(0, 0, 0);"><rect x="0" y="0" width="100%" height="100%" fill="none" data-v-04588dbe=""></rect><g data-v-04588dbe=""><path xmlns="http://www.w3.org/2000/svg" d=""></path></g></svg></svg>